<svg width="115" height="108" viewBox="0 0 115 108" fill="none" xmlns="http://www.w3.org/2000/svg">
<g clip-path="url(#clip0_917_24)">
<g filter="url(#filter0_d_917_24)">
<path d="M111.948 61.9689L100.363 68.3936C100.822 66.2534 101.14 64.0847 101.309 61.9078C101.441 60.1582 101.499 58.4046 101.433 56.6509C101.4 54.8972 101.235 53.1476 101.02 51.4061C100.074 44.4524 97.6458 37.6777 93.8709 31.725C92.9458 30.2236 91.9051 28.7995 90.8313 27.3998C89.7203 26.0286 88.5804 24.6818 87.3332 23.4245C84.8676 20.8936 82.1418 18.6069 79.1889 16.6457C73.3036 12.6867 66.5428 10.0135 59.526 8.78469L55.5859 30.9926C59.654 30.3212 64.1763 30.5246 68.6821 31.8959C70.9454 32.5632 73.1797 33.5316 75.3438 34.7644C76.4382 35.3707 77.479 36.0746 78.528 36.8111C79.5399 37.576 80.5682 38.3776 81.5223 39.2727C85.4003 42.7964 88.6135 47.3901 90.7528 52.7488C91.2649 54.0915 91.7523 55.475 92.124 56.8991C92.5328 58.3232 92.8302 59.788 93.0656 61.2772C93.3341 62.9983 93.491 64.7561 93.5323 66.5423L86.9491 55.0111L81.5512 58.0017L93.619 79.1395L115 67.291L111.948 61.9689ZM20.8816 60.3251C20.4603 59.316 20.068 58.2621 19.7706 57.1717C19.4361 56.0812 19.2007 54.9663 18.9859 53.8189C18.2095 49.2618 18.4242 44.2408 19.9441 39.2646C20.3034 38.0114 20.7783 36.7866 21.2905 35.5456C21.8356 34.329 22.418 33.0962 23.1118 31.9121C24.4747 29.5278 26.1308 27.2126 28.0967 25.0886C30.2897 22.6758 32.8627 20.4868 35.7454 18.6029L30.075 29.7719L35.6174 32.5021L46.6279 10.811L24.6853 0L21.9141 5.46042L33.3046 11.0714C29.4141 12.4711 25.6972 14.3387 22.2734 16.6376C19.3163 18.5947 16.5947 20.8855 14.1291 23.4163C12.8859 24.6695 11.7419 26.0204 10.631 27.3916C9.55717 28.7913 8.51642 30.2154 7.5913 31.7168C3.81648 37.6696 1.38802 44.4443 0.442255 51.398C0.227495 53.1394 0.0622955 54.889 0.0292556 56.6427C-0.0409543 58.3964 0.0210158 60.1501 0.153176 61.8997C0.425755 65.3989 1.07414 68.8697 2.08598 72.2346L24.0245 65.8302C22.7979 64.1864 21.7365 62.3432 20.8816 60.3251ZM65.1262 86.1949C61.3183 89.629 56.3995 92.2982 50.7249 93.6776C45.0627 95.0447 38.8016 95.1057 32.5612 93.5351C27.3739 92.2412 22.2362 89.8121 17.6313 86.3373L30.6738 86.6344L30.8184 80.5311L6.21184 79.9696L5.6419 104.131L11.8369 104.273L12.1632 90.4795C16.5286 95.5004 21.8976 99.671 27.8943 102.649C34.9401 106.169 42.8449 108 50.7332 108C58.6215 108 66.5221 106.169 73.572 102.649C80.626 99.1461 86.8169 93.999 91.5169 87.7492L73.1343 74.326C71.6557 78.5821 68.9464 82.7689 65.1262 86.1949Z" fill="#666666"/>
</g>
</g>
<defs>
<filter id="filter0_d_917_24" x="-5" y="-3" width="125" height="118" filterUnits="userSpaceOnUse" color-interpolation-filters="sRGB">
<feFlood flood-opacity="0" result="BackgroundImageFix"/>
<feColorMatrix in="SourceAlpha" type="matrix" values="0 0 0 0 0 0 0 0 0 0 0 0 0 0 0 0 0 0 127 0" result="hardAlpha"/>
<feOffset dy="2"/>
<feGaussianBlur stdDeviation="2.5"/>
<feComposite in2="hardAlpha" operator="out"/>
<feColorMatrix type="matrix" values="0 0 0 0 0.429167 0 0 0 0 0.429167 0 0 0 0 0.429167 0 0 0 0.27 0"/>
<feBlend mode="normal" in2="BackgroundImageFix" result="effect1_dropShadow_917_24"/>
<feBlend mode="normal" in="SourceGraphic" in2="effect1_dropShadow_917_24" result="shape"/>
</filter>
<clipPath id="clip0_917_24">
<rect width="115" height="108" fill="white"/>
</clipPath>
</defs>
</svg>
