<svg width="107" height="107" viewBox="0 0 107 107" fill="none" xmlns="http://www.w3.org/2000/svg">
<g clip-path="url(#clip0_917_26)">
<g filter="url(#filter0_d_917_26)">
<path d="M99.0151 61.448C103.421 61.448 107 57.8849 107 53.5075C107 49.1301 103.417 45.567 99.0151 45.567C95.1675 45.567 91.7526 47.5476 88.6738 49.7559C87.7298 48.1842 86.8644 46.4453 86.1242 44.5855C85.3018 42.4981 84.1468 40.6348 82.8058 39.1484C83.1062 38.4835 83.3959 37.8007 83.6891 37.1037C88.8419 39.2907 93.6442 39.6178 96.8553 37.7723C97.0127 37.6905 97.1628 37.6016 97.3202 37.5091C101.057 35.1977 102.208 30.2905 99.8877 26.5709C97.5634 22.8549 92.6287 21.7099 88.9348 23.9893C85.595 25.9024 83.6354 29.3126 82.0764 32.7512C80.4672 31.8551 78.8474 30.7777 77.274 29.5331C75.4575 28.1249 73.5122 27.0937 71.6063 26.4856C71.5348 25.778 71.4454 25.0596 71.3488 24.3307C76.8914 23.6479 81.211 21.5321 83.0776 18.314L83.1598 18.1717C84.2111 16.3262 84.4758 14.1819 83.9072 12.1408C83.3386 10.0997 82.0013 8.39634 80.1454 7.35088C76.3085 5.19596 71.4311 6.54012 69.2677 10.3415C67.3475 13.6663 67.3761 17.6063 67.7658 21.3721C65.9171 21.4005 63.9754 21.2725 61.9873 20.9774C59.7416 20.6502 57.5711 20.7 55.6366 21.0947C55.2146 20.5151 54.7712 19.9284 54.3171 19.3381C58.794 15.9848 61.4795 12.0057 61.4795 8.31455C61.4902 8.07275 61.4902 7.83094 61.4795 7.59269C61.3829 5.46977 60.4604 3.51043 58.8834 2.08093C57.3065 0.647869 55.2504 -0.0846623 53.1263 0.00779307C48.7209 0.206928 45.2988 3.93359 45.4955 8.24343C45.4955 12.0874 47.4979 15.4905 49.7257 18.5593C48.6959 19.1709 47.5981 19.7506 46.4395 20.284L44.5479 21.0236C42.4453 21.8486 40.5715 22.9936 39.0768 24.32C38.401 24.0177 37.7037 23.7226 36.9957 23.4275C39.1913 18.2962 39.5202 13.5098 37.6572 10.2952L37.5857 10.1708C36.5022 8.343 34.7715 7.04507 32.7047 6.51167C30.6343 5.97828 28.4888 6.28053 26.6543 7.358C24.8164 8.43546 23.5112 10.1565 22.9748 12.2119C22.442 14.2637 22.7424 16.4044 23.8187 18.2179C25.7425 21.5321 29.1682 23.4843 32.626 25.0312C31.7285 26.6314 30.645 28.2458 29.3934 29.814C27.981 31.6169 26.944 33.5442 26.3361 35.436C25.6138 35.5107 24.8736 35.5996 24.1262 35.6956C23.4504 30.1731 21.3156 25.8704 18.0544 24C14.2926 21.8842 9.44381 23.175 7.24466 26.8803C6.16118 28.7081 5.85723 30.8452 6.39361 32.897C6.92641 34.9524 8.23159 36.677 10.0875 37.7616C13.4237 39.664 17.375 39.6391 21.1475 39.2587C21.1726 41.0935 21.0438 43.0315 20.7399 45.0122C20.4109 47.2383 20.4753 49.4323 20.8972 51.3881C20.3108 51.8077 19.7208 52.2522 19.1236 52.7038C15.7552 48.2482 11.7431 45.5776 7.98486 45.5776C3.583 45.5776 0 49.1407 0 53.5181C0 57.8991 3.583 61.4586 7.98486 61.4586C11.8396 61.4586 15.2546 59.4779 18.3334 57.2697C19.2774 58.845 20.1392 60.5838 20.8758 62.4401C21.7018 64.5239 22.8568 66.3872 24.1977 67.8665C23.9009 68.5243 23.6113 69.2035 23.3181 69.8969C18.1581 67.7065 13.3379 67.3829 10.0803 69.2498C8.23159 70.313 6.90496 72.027 6.35428 74.0788C5.80002 76.1306 6.08251 78.2748 7.15169 80.1168C8.22087 81.9553 9.94442 83.2745 12.0077 83.8222C14.0709 84.3733 16.2272 84.0924 18.0795 83.0292C21.4157 81.1125 23.3717 77.6916 24.9272 74.2459C26.5328 75.142 28.1562 76.2195 29.726 77.4641C31.5318 78.89 33.4771 79.9355 35.3937 80.5471C35.4652 81.2583 35.5582 81.9837 35.6512 82.7198C30.0907 83.3919 25.7604 85.5112 23.8831 88.7401C21.6839 92.5343 22.9963 97.4024 26.8153 99.5929C30.6307 101.783 35.5296 100.475 37.7287 96.6734C39.6418 93.3557 39.6204 89.4299 39.2342 85.6784C41.0686 85.6464 43.0174 85.7815 45.002 86.0731C47.2548 86.4109 49.4396 86.3576 51.3777 85.9486C51.7961 86.5247 52.2395 87.1079 52.6865 87.6911C48.1988 91.0372 45.5098 95.0093 45.5098 98.6932C45.499 98.9279 45.499 99.1626 45.5098 99.408C45.7064 103.668 49.2501 107 53.4982 107C53.6198 107 53.7414 106.996 53.8629 106.993C58.2684 106.794 61.6905 103.067 61.4902 98.7573C61.4902 94.9275 59.4985 91.5386 57.2779 88.4769C58.862 87.5417 60.6106 86.6847 62.4772 85.9522C64.5762 85.1272 66.4463 83.9786 67.9375 82.6451C68.6026 82.9403 69.2891 83.2319 69.9829 83.5199C67.7837 88.6512 67.4619 93.4446 69.3356 96.6734C71.5419 100.464 76.4373 101.766 80.2491 99.5716C84.061 97.3775 85.3697 92.5058 83.1634 88.7187C81.2432 85.4117 77.8139 83.4666 74.3525 81.9162C75.2536 80.316 76.3371 78.7015 77.5887 77.1369C78.9833 75.3589 80.0203 73.4138 80.6353 71.5078C81.3648 71.4331 82.1085 71.3407 82.8595 71.2447C83.5317 76.7813 85.6486 81.0805 88.8633 82.9225C89.0493 83.0398 89.2388 83.1465 89.4283 83.2461C91.3235 84.2311 93.4869 84.4196 95.5251 83.783C97.5634 83.1465 99.2297 81.7597 100.217 79.875C101.207 77.9903 101.397 75.839 100.757 73.8121C100.117 71.7852 98.7219 70.1281 96.8839 69.1751C93.5548 67.2726 89.6107 67.294 85.8417 67.6816C85.8167 65.8503 85.9454 63.9122 86.2422 61.9351C86.5748 59.6984 86.5211 57.5328 86.1099 55.609C86.6928 55.1894 87.2756 54.752 87.8692 54.304C91.2591 58.7739 95.2677 61.448 99.0151 61.448ZM99.0151 48.746C101.654 48.746 103.803 50.8796 103.803 53.5039C103.803 56.1282 101.658 58.2653 99.0151 58.2653C96.319 58.2653 93.1937 56.018 90.4546 52.398C93.2008 50.4173 96.0365 48.746 99.0151 48.746ZM90.5761 26.7203C92.8182 25.337 95.7754 26.0233 97.1664 28.2494C98.5574 30.4789 97.8673 33.4197 95.6324 34.803C95.5394 34.8599 95.45 34.9132 95.3034 34.9915C92.972 36.3321 89.1387 35.9409 84.9478 34.1629C86.3316 31.0799 87.955 28.2245 90.5761 26.7203ZM11.693 35.0093C10.5917 34.3621 9.80854 33.3308 9.49029 32.1005C9.17204 30.8701 9.35441 29.59 10.0016 28.4947C10.8884 26.9976 12.5012 26.1549 14.146 26.1549C14.9363 26.1549 15.7373 26.3505 16.4668 26.7594C18.8089 28.1036 20.3895 31.5955 20.933 36.0796C17.5574 36.4317 14.264 36.4743 11.693 35.0093ZM7.98486 58.2796C5.34589 58.2796 3.20038 56.146 3.20038 53.5181C3.20038 50.8938 5.34589 48.7602 7.98486 48.7602C10.6882 48.7602 13.8171 51.0076 16.5526 54.6276C13.8063 56.6083 10.9707 58.2796 7.98486 58.2796ZM16.4811 80.2768C15.3726 80.9098 14.0781 81.084 12.8373 80.7533C11.6 80.4226 10.563 79.6332 9.92297 78.5273C9.28289 77.4249 9.11125 76.1377 9.44381 74.9038C9.77636 73.6734 10.5702 72.6422 11.6787 72.0056C12.6263 71.4651 13.8135 71.2055 15.1723 71.2055C17.1819 71.2055 19.5599 71.7745 22.0594 72.8377C20.6755 75.9279 19.0628 78.794 16.4811 80.2768ZM95.3642 71.9772C96.5013 72.5675 97.3381 73.5632 97.7207 74.7757C98.1069 75.9919 97.9889 77.2827 97.3953 78.4135C96.8017 79.5408 95.8005 80.3764 94.5811 80.7569C93.3582 81.1409 92.0565 81.0236 90.9158 80.4333C90.8014 80.3729 90.6906 80.3124 90.5297 80.2093C88.1911 78.8687 86.6105 75.366 86.067 70.8677C89.439 70.5192 92.7431 70.4766 95.3642 71.9772ZM72.0461 11.9203C72.9258 10.3735 74.5492 9.50581 76.2191 9.50581C77.0165 9.50581 77.8247 9.70494 78.5685 10.121C79.6805 10.7468 80.4815 11.7674 80.8248 12.9907C81.1645 14.2175 81.0072 15.5012 80.3314 16.6889C78.9761 19.0216 75.4646 20.6005 70.9591 21.1552C70.6015 17.7912 70.555 14.502 72.0461 11.9203ZM55.4828 28.1889C55.4864 28.2671 55.4864 28.3454 55.4828 28.4272C55.4506 28.957 55.2146 29.4406 54.8141 29.7926C54.4172 30.1447 53.9023 30.3154 53.3731 30.2869C52.2753 30.2194 51.435 29.277 51.5029 28.0893C51.5029 27.2501 51.8962 26.4856 52.6722 25.8171C53.1192 25.433 53.6698 25.1023 54.2956 24.8321C55.0179 26.0375 55.4828 27.1683 55.4828 28.1889ZM48.6994 8.17231C48.5814 5.54445 50.634 3.30774 53.2765 3.18684C53.3516 3.18328 53.4267 3.18328 53.4982 3.18328C54.6997 3.18328 55.8368 3.62066 56.7308 4.43143C57.6784 5.29197 58.2291 6.46545 58.2863 7.74204C58.2934 7.88428 58.2934 8.02652 58.2863 8.24343C58.2863 10.9353 56.0299 14.0575 52.3897 16.7849C50.3908 14.0432 48.6994 11.2056 48.6994 8.17231ZM38.8659 29.8922C39.0625 29.3304 39.3772 28.765 39.7884 28.2138C41.0042 28.8859 41.959 29.6113 42.4524 30.4541L42.5526 30.6247C42.7993 31.0941 42.8493 31.6311 42.692 32.136C42.5347 32.641 42.1878 33.057 41.7158 33.306C41.2474 33.5549 40.7074 33.6047 40.1961 33.4446C39.6883 33.2882 39.2699 32.9432 38.991 32.417C38.5726 31.6986 38.5333 30.8488 38.8659 29.8922ZM26.5828 16.6142C25.932 15.519 25.7532 14.2388 26.0751 13.0049C26.3933 11.7745 27.1764 10.7397 28.2778 10.0961C29.0251 9.65871 29.8547 9.43468 30.6986 9.43468C31.1027 9.43468 31.5068 9.48447 31.9073 9.58759C33.1445 9.90763 34.1815 10.6864 34.8788 11.8634C36.2233 14.1855 35.83 18.001 34.042 22.1686C30.9489 20.7996 28.0811 19.1923 26.5828 16.6142ZM28.9465 38.4515C30.341 38.4443 31.5389 38.5937 32.4079 39.0915L32.5402 39.1698C33.4735 39.7494 33.756 40.9762 33.1731 41.9007C32.5902 42.8289 31.3566 43.1133 30.3947 42.5124C29.6616 42.0785 29.1896 41.346 29.0001 40.329C28.8892 39.7565 28.8714 39.1235 28.9465 38.4515ZM34.9575 95.0946C34.3174 96.1969 33.2875 96.9864 32.0503 97.3171C30.8095 97.6442 29.5186 97.4771 28.4137 96.8441C26.1251 95.532 25.3384 92.6125 26.6543 90.3403C28.006 88.0146 31.5246 86.4429 36.0409 85.8988C36.3985 89.2486 36.4414 92.5272 34.9575 95.0946ZM51.5136 79.018C51.5744 78.0152 52.379 77.2187 53.3874 77.1582C53.4303 77.1547 53.4696 77.1547 53.5125 77.1547C53.9988 77.1547 54.4637 77.3289 54.832 77.6525C55.2289 78.0046 55.4685 78.4882 55.4971 78.922C55.4971 79.779 55.093 80.5578 54.2992 81.2405C53.8558 81.6174 53.3194 81.9446 52.7044 82.2148C51.9821 81.0307 51.5172 79.9461 51.5136 79.018ZM58.3006 98.8426C58.4221 101.47 56.3696 103.707 53.7235 103.825C51.0881 103.949 48.8317 101.901 48.7102 99.2835C48.7066 99.1342 48.703 98.9813 48.7102 98.7679C48.7102 96.0832 50.9737 92.9752 54.621 90.2549C56.6163 92.9895 58.297 95.82 58.3006 98.8426ZM68.1306 77.1013C67.9375 77.6561 67.63 78.2108 67.233 78.7549C66.0029 78.0686 65.0303 77.3254 64.5154 76.4399C64.4796 76.383 64.4474 76.3262 64.4153 76.2657C64.1721 75.7928 64.1292 75.2558 64.2937 74.7509C64.4582 74.2459 64.8086 73.837 65.2842 73.5952C65.5703 73.4494 65.8778 73.3783 66.1889 73.3783C66.3963 73.3783 66.6037 73.4103 66.8039 73.4743C67.3117 73.6378 67.7229 73.9863 68.0054 74.5304C68.4309 75.2594 68.4703 76.1235 68.1306 77.1013ZM80.41 90.3225C81.7331 92.5947 80.95 95.5142 78.665 96.8299C77.5565 97.4664 76.2656 97.6371 75.032 97.3064C73.7947 96.9793 72.7613 96.1898 72.1212 95.091C70.7695 92.769 71.1629 88.9499 72.9544 84.7823C76.0511 86.1584 78.9225 87.7622 80.41 90.3225ZM78.0607 68.4959C76.6375 68.4852 75.4467 68.3465 74.5635 67.838C74.5027 67.8096 74.4491 67.774 74.3883 67.7385C73.9413 67.4504 73.6338 67.0059 73.5229 66.4868C73.4121 65.9676 73.5122 65.4413 73.8019 64.9933C74.0915 64.5488 74.5385 64.2429 75.0606 64.1327C75.1964 64.1043 75.3323 64.09 75.4682 64.09C75.8544 64.09 76.2442 64.2074 76.6196 64.4492C77.3455 64.8759 77.814 65.6013 78.0035 66.6077C78.1215 67.1837 78.1358 67.8203 78.0607 68.4959ZM85.0336 52.4727C84.6832 51.7899 84.2684 51.1712 83.7963 50.6271C82.4983 49.1301 80.857 48.3406 79.0512 48.3406C77.6638 48.3406 76.3622 48.8811 75.3824 49.859C74.4026 50.8369 73.8662 52.1348 73.8662 53.5146C73.8698 56.3522 76.1977 58.6672 79.0512 58.6707C80.4422 58.6707 81.8082 58.2156 83.1777 57.4937C83.3208 58.749 83.2957 60.1073 83.0919 61.4799C82.7486 63.77 82.6056 65.9854 82.6521 68.0798C82.1908 68.1403 81.7331 68.1972 81.2825 68.247C81.3254 67.4682 81.2825 66.7143 81.1502 66.0103C80.7819 64.09 79.7771 62.6036 78.3074 61.7431C77.1453 60.9928 75.7578 60.7332 74.399 61.0212C73.0438 61.3093 71.8781 62.1022 71.1236 63.2579C70.369 64.4136 70.108 65.7934 70.3977 67.1446C70.6873 68.4923 71.4847 69.6516 72.6433 70.3983C72.797 70.4979 72.9544 70.5904 73.0402 70.6295C74.2381 71.3229 75.647 71.6074 77.1882 71.6678C76.6768 72.8591 75.9688 74.0574 75.0927 75.1776C73.6481 76.984 72.4144 78.8331 71.4025 80.6644C70.9805 80.4902 70.5621 80.3124 70.1545 80.1382C70.58 79.4874 70.9197 78.8189 71.1557 78.1433C71.8065 76.2799 71.6778 74.477 70.8196 73.0084C70.1867 71.7781 69.1139 70.8677 67.7944 70.4446C66.4714 70.0178 65.0696 70.1316 63.8324 70.7575C62.5952 71.3869 61.6797 72.4537 61.2542 73.7659C60.8251 75.078 60.9395 76.4791 61.5689 77.7094C61.6511 77.8694 61.7441 78.0259 61.7942 78.1006C62.4843 79.2918 63.5606 80.2413 64.8658 81.0556C63.8324 81.8166 62.6238 82.4851 61.315 83.0007C59.1516 83.847 57.1492 84.8356 55.3505 85.9202C55.0787 85.5646 54.8105 85.2125 54.5459 84.8641C55.2218 84.5191 55.8404 84.1102 56.3803 83.6479C57.8929 82.3535 58.6903 80.7178 58.6868 78.8224C58.6045 77.4463 57.9859 76.1839 56.9453 75.2665C55.9083 74.3526 54.5853 73.8974 53.1871 73.9792C50.5696 74.1357 48.4742 76.2195 48.3132 78.9185C48.3132 80.3017 48.7709 81.6637 49.4933 83.0256C48.2238 83.1678 46.8543 83.143 45.474 82.9367C43.1747 82.5953 40.9506 82.4638 38.8444 82.4993C38.7872 82.0477 38.73 81.6032 38.6763 81.1658C39.4165 81.2014 40.146 81.1552 40.8326 81.0307C42.8029 80.6715 44.3297 79.6652 45.2666 78.1041C46.697 75.6363 45.8423 72.4715 43.3643 71.0491C40.8826 69.6267 37.6966 70.4766 36.2662 72.9444C35.5725 74.1428 35.2864 75.5474 35.2292 77.0871C34.0313 76.5751 32.8263 75.8639 31.7106 74.982C29.8941 73.5418 28.0346 72.3115 26.1895 71.3016C26.3647 70.882 26.5399 70.4695 26.7151 70.0641C27.3695 70.4908 28.0453 70.8286 28.7283 71.0669C30.5949 71.7141 32.4043 71.5825 33.9455 70.6935C35.147 70.0072 36.0052 68.8942 36.3663 67.5642C36.7239 66.2343 36.5416 64.8439 35.8514 63.6527C35.1613 62.4578 34.042 61.6044 32.7047 61.2453C31.3673 60.8861 29.9656 61.071 28.7712 61.7573C27.5698 62.4436 26.6186 63.514 25.7961 64.8119C25.0309 63.7842 24.3622 62.5859 23.8437 61.2844C22.9927 59.133 21.9986 57.1452 20.908 55.3566C21.2691 55.0828 21.6267 54.8125 21.9843 54.5458C22.3383 55.2392 22.7495 55.8651 23.2215 56.4091C24.516 57.9026 26.1502 58.6921 27.9417 58.6921C30.8059 58.6885 33.1302 56.3665 33.1266 53.5181C33.1231 50.6805 30.7987 48.3691 27.9417 48.362C26.5542 48.362 25.1883 48.8171 23.8223 49.5354C23.6757 48.2624 23.6935 46.8791 23.9009 45.4887C24.2478 43.1987 24.3908 40.9762 24.3479 38.8782C24.8056 38.8177 25.2633 38.7608 25.7103 38.711C25.671 39.4791 25.7175 40.2223 25.8534 40.93C26.2181 42.8573 27.2229 44.3544 28.7283 45.2398C31.1563 46.7475 34.3674 46.0115 35.8836 43.5969C37.4033 41.1824 36.6596 37.9892 34.2459 36.4885C34.135 36.421 34.0242 36.3534 33.9562 36.3214C32.7583 35.6351 31.3566 35.3471 29.819 35.2902C30.3267 34.1025 31.0348 32.9041 31.9108 31.7875C33.3519 29.9811 34.5856 28.132 35.5975 26.3007C36.0266 26.4785 36.4522 26.6563 36.8705 26.8341C36.4343 27.4919 36.091 28.1676 35.8514 28.8539C35.2042 30.703 35.3365 32.4881 36.1983 33.9603C36.8455 35.18 37.9326 36.0761 39.2556 36.4885C40.5858 36.8975 41.9876 36.7659 43.2141 36.1258C44.4406 35.4822 45.3417 34.4012 45.7565 33.0855C46.1677 31.7662 46.0354 30.3687 45.3918 29.1526C45.3274 29.0352 45.263 28.9179 45.2273 28.8645C44.5371 27.6804 43.468 26.7416 42.1771 25.9309C42.8529 25.4401 43.6003 24.985 44.4048 24.5867L45.7386 24.0604C47.8949 23.2105 49.8866 22.2255 51.6781 21.141C51.9499 21.493 52.2145 21.8415 52.4755 22.1864C51.7782 22.5385 51.1489 22.9509 50.5946 23.4239C49.1035 24.704 48.3168 26.322 48.3204 28.0075C48.1488 30.8488 50.3336 33.3024 53.1907 33.4766C54.5638 33.5584 55.9083 33.0997 56.9489 32.1858C57.9859 31.2719 58.6045 30.0096 58.6868 28.6334C58.7011 28.4236 58.7011 28.2138 58.6903 28.1C58.6903 26.7345 58.2434 25.3903 57.5318 24.0426C58.7905 23.9075 60.1529 23.9324 61.5296 24.1351C63.8324 24.4765 66.0602 24.6187 68.1663 24.5689C68.2235 25.0099 68.2807 25.4508 68.3308 25.8811C67.562 25.842 66.8218 25.8917 66.1138 26.0233C64.1757 26.386 62.6703 27.3888 61.7513 28.9321C60.3245 31.3964 61.1791 34.5541 63.6572 35.9729C66.1352 37.3918 69.3106 36.5419 70.7374 34.0812C71.4311 32.8899 71.7171 31.4924 71.7744 29.9598C72.9723 30.4647 74.1845 31.1724 75.3073 32.0436C77.1238 33.4802 78.9797 34.707 80.8212 35.7133C80.6424 36.1365 80.4672 36.5561 80.2884 36.9651C79.6341 36.5383 78.9582 36.2005 78.2752 35.9623C76.4015 35.3115 74.5993 35.4395 73.0509 36.3321C70.5693 37.7545 69.7182 40.9193 71.1486 43.3871C72.5825 45.855 75.7686 46.7013 78.2466 45.2789C79.4445 44.5926 80.3957 43.5223 81.2146 42.2243C81.9762 43.252 82.6449 44.4504 83.1598 45.7554C84.0145 47.9032 85.0086 49.8946 86.1028 51.6832C85.738 51.9464 85.384 52.2131 85.0336 52.4727ZM82.3624 54.304C81.1609 55.0223 80.0417 55.4881 79.0583 55.4881C77.9641 55.4846 77.0702 54.5956 77.0666 53.5075C77.0666 52.9776 77.274 52.4798 77.6495 52.1028C78.0249 51.7295 78.5256 51.5197 79.0548 51.5197C79.913 51.5197 80.6925 51.9179 81.3755 52.7038C81.7581 53.1483 82.0907 53.6888 82.3624 54.304ZM38.426 77.9512C38.4046 76.5644 38.5548 75.3767 39.0482 74.5304C39.3128 74.0717 39.7455 73.7445 40.2604 73.6058C40.7754 73.4671 41.3117 73.5383 41.7766 73.8014C42.7278 74.349 43.0567 75.5652 42.5168 76.4933C42.0734 77.2365 41.3153 77.7094 40.2676 77.9014C39.699 78.0046 39.0804 78.0152 38.426 77.9512ZM28.1169 67.1553C28.7927 65.9463 29.5257 64.9933 30.3768 64.5061C30.8345 64.2394 31.3709 64.1718 31.8822 64.3105C32.3936 64.4456 32.8227 64.7763 33.0873 65.2315C33.3519 65.6867 33.4234 66.2201 33.284 66.7286C33.1481 67.2371 32.8155 67.6638 32.3542 67.9305C31.6248 68.3501 30.763 68.3892 29.7868 68.0549C29.229 67.8629 28.6675 67.5571 28.1169 67.1553ZM24.6519 52.7145C25.8498 51.9997 26.9583 51.5374 27.9417 51.5374C29.0359 51.541 29.9298 52.4264 29.9334 53.5181C29.937 54.6134 29.043 55.5024 27.9452 55.5059C27.1013 55.5059 26.3289 55.1076 25.6495 54.3253C25.2633 53.8773 24.9272 53.3332 24.6519 52.7145ZM68.574 29.0886C68.5919 30.4647 68.4417 31.6453 67.9518 32.4845C67.6872 32.9432 67.2581 33.2668 66.7467 33.4055C66.2354 33.5442 65.699 33.4731 65.2377 33.2099C64.7764 32.9468 64.451 32.5201 64.3116 32.0116C64.1721 31.5031 64.2436 30.9697 64.4975 30.5287C64.9338 29.7998 65.6704 29.3339 66.6931 29.1419C67.0364 29.0779 67.3975 29.0459 67.7801 29.0459C68.0376 29.0459 68.3022 29.0601 68.574 29.0886ZM78.8903 39.8632C78.2144 41.0758 77.485 42.0288 76.6375 42.5159C75.6828 43.0635 74.4634 42.74 73.9127 41.7905C73.362 40.8446 73.691 39.6249 74.6458 39.0773C75.0463 38.8462 75.4897 38.7324 75.9724 38.7324C76.3622 38.7324 76.777 38.807 77.2132 38.96C77.7746 39.152 78.3396 39.4613 78.8903 39.8632ZM43.8506 44.8131H37.7287C36.4414 47.16 35.6941 49.763 35.5439 52.4335H42.9817C43.021 49.8697 43.3106 47.32 43.8506 44.8131ZM38.966 63.9265C40.9649 66.6646 43.704 68.7839 46.865 70.0392C45.7351 68.1261 44.8769 66.0707 44.3119 63.9265H38.966ZM42.9817 54.3822H35.5439C35.6941 57.0563 36.4414 59.6628 37.7287 62.0169H43.8506C43.3106 59.5064 43.021 56.9496 42.9817 54.3822ZM46.772 36.8264C43.611 38.0923 40.8719 40.2223 38.873 42.9675H44.2189C44.7803 40.8126 45.6421 38.7466 46.772 36.8264ZM68.0233 42.9675C66.0244 40.2223 63.2853 38.0923 60.1243 36.8264H60.0849C61.2256 38.743 62.0874 40.8091 62.6381 42.9675H68.0233ZM60.1636 70.0427C63.3246 68.7875 66.0637 66.6681 68.0626 63.93H62.7167C62.1625 66.0778 61.3007 68.1367 60.1636 70.0427ZM63.1387 62.0169H69.2462C70.5514 59.67 71.3023 57.0599 71.4454 54.3822H64.0183C63.9683 56.9496 63.6751 59.5064 63.1387 62.0169ZM63.1387 44.8664C63.6751 47.3734 63.9683 49.923 64.0219 52.4869H71.449C71.3059 49.8128 70.555 47.2063 69.2498 44.8664H63.1387ZM46.2857 42.9675H52.5399V35.5818C51.6817 35.6458 50.8306 35.7525 49.9867 35.9089C48.2203 37.9465 46.9544 40.361 46.2857 42.9675ZM44.8769 52.4335H52.5399V44.8131H45.7708C45.2344 47.32 44.9376 49.8697 44.8769 52.4335ZM45.7708 62.0169H52.5399V54.3822H44.8769C44.9341 56.9496 45.2344 59.5064 45.7708 62.0169ZM49.9832 70.9709C50.8271 71.1273 51.6817 71.234 52.5363 71.2838V63.9265H46.2857C46.958 66.5259 48.2238 68.9368 49.9832 70.9709ZM54.4494 63.9265V71.2838C55.3076 71.234 56.1586 71.1309 57.0025 70.9709C58.7619 68.9368 60.0277 66.5259 60.7035 63.9265H54.4494ZM62.1088 54.3822H54.4458V62.0169H61.2149C61.7584 59.5064 62.0588 56.9496 62.1088 54.3822ZM54.4887 52.4833H62.1518C62.0981 49.9195 61.7977 47.3698 61.2578 44.8629H54.4887V52.4833ZM57.0025 35.9089C56.1586 35.7525 55.304 35.6422 54.4494 35.5818V42.9675H60.7035C60.0313 40.361 58.7654 37.9465 57.0025 35.9089Z" fill="#666666"/>
</g>
</g>
<defs>
<filter id="filter0_d_917_26" x="-5" y="-3" width="117" height="117" filterUnits="userSpaceOnUse" color-interpolation-filters="sRGB">
<feFlood flood-opacity="0" result="BackgroundImageFix"/>
<feColorMatrix in="SourceAlpha" type="matrix" values="0 0 0 0 0 0 0 0 0 0 0 0 0 0 0 0 0 0 127 0" result="hardAlpha"/>
<feOffset dy="2"/>
<feGaussianBlur stdDeviation="2.5"/>
<feComposite in2="hardAlpha" operator="out"/>
<feColorMatrix type="matrix" values="0 0 0 0 0.429167 0 0 0 0 0.429167 0 0 0 0 0.429167 0 0 0 0.27 0"/>
<feBlend mode="normal" in2="BackgroundImageFix" result="effect1_dropShadow_917_26"/>
<feBlend mode="normal" in="SourceGraphic" in2="effect1_dropShadow_917_26" result="shape"/>
</filter>
<clipPath id="clip0_917_26">
<rect width="107" height="107" fill="white"/>
</clipPath>
</defs>
</svg>
