<svg width="106" height="126" viewBox="0 0 106 126" fill="none" xmlns="http://www.w3.org/2000/svg">
<g clip-path="url(#clip0_917_28)">
<g filter="url(#filter0_d_917_28)">
<path d="M16.7001 28.8609C17.3975 30.061 18.9357 30.4697 20.135 29.7756L25.5448 26.6683C26.7506 25.9742 27.1613 24.4432 26.4638 23.2496L26.0402 22.5166C25.3428 21.3165 23.8046 20.9078 22.6053 21.6019L17.1954 24.7092C15.9896 25.4033 15.579 26.9343 16.2764 28.1279L16.7001 28.8609ZM51.0036 11.0604C52.0009 11.0604 52.8156 10.256 52.8156 9.25704C52.8156 8.25803 52.0074 7.45363 51.0036 7.45363H48.9505C47.9533 7.45363 47.1385 8.25803 47.1385 9.25704C47.1385 10.256 47.9468 11.0604 48.9505 11.0604H51.0036ZM104.379 73.6865H100.031C99.7182 68.925 98.734 64.196 97.0655 59.7069C95.0123 54.141 91.9163 48.9643 88.0447 44.4688C86.1089 42.2178 83.9645 40.1419 81.6507 38.2737C80.1581 37.0606 78.5938 35.9383 76.9643 34.9134L79.024 31.3649C78.8676 31.313 78.7176 31.2482 78.5677 31.1638L73.1579 28.0565C73.008 27.9722 72.8776 27.8749 72.7538 27.7646L70.5833 31.5077C66.3858 29.6394 61.9341 28.3355 57.3912 27.6673C54.4451 27.2197 51.4599 27.077 48.4877 27.1678C45.5156 27.2586 42.5434 27.6024 39.63 28.2122C36.0712 28.9582 32.6037 30.1129 29.3056 31.6179L27.0765 27.7711C26.9527 27.8814 26.8223 27.9787 26.6724 28.063L21.2626 31.1703C21.1127 31.2547 20.9628 31.3195 20.8063 31.3714L22.9572 35.0755C18.0362 38.2282 13.6627 42.2373 10.1431 46.8885C6.55826 51.6046 3.81423 56.9564 2.10003 62.6196C0.372793 68.2828 -0.265959 74.2509 0.0990423 80.1347C0.464043 86.0249 1.9436 91.8438 4.35521 97.2216C5.57406 99.9072 7.03406 102.483 8.70915 104.909C10.3842 107.335 12.2875 109.599 14.3667 111.688C18.5446 115.839 23.4526 119.239 28.7972 121.678C34.1484 124.11 39.9428 125.499 45.7633 125.894L46.8583 125.953C47.2233 125.972 47.5883 125.998 47.9533 125.992C48.6833 125.992 49.4133 126.005 50.1368 125.998C51.5903 125.94 53.0437 125.862 54.4907 125.687C57.3781 125.362 60.233 124.772 63.0031 123.922C63.6939 123.715 64.3783 123.475 65.0627 123.241C65.7406 122.988 66.4184 122.748 67.0832 122.463C68.4194 121.924 69.723 121.308 71.0005 120.646C73.5425 119.297 75.9671 117.753 78.2093 115.989C82.6936 112.46 86.487 108.126 89.3092 103.287C89.5569 102.865 89.4591 102.314 89.0615 102.009C88.6248 101.672 88.0056 101.75 87.6667 102.184V102.191C84.3621 106.42 80.4188 110.072 76.0062 112.953C71.5936 115.826 66.7248 117.922 61.6734 119.122C51.5772 121.548 40.725 120.374 31.613 115.807C27.0439 113.556 22.892 110.488 19.405 106.822C17.6517 105 16.0548 103.028 14.6535 100.926C13.2586 98.8239 12.0463 96.5988 11.0491 94.2894C9.03505 89.6771 7.82924 84.721 7.57504 79.7C7.32085 74.679 7.87487 69.6126 9.37398 64.8252C10.8601 60.0377 13.2065 55.5163 16.2699 51.5397C19.3268 47.5502 23.1202 44.138 27.3763 41.4783C31.6325 38.8186 36.3515 36.9049 41.2725 35.8929C43.7297 35.3869 46.2326 35.095 48.7419 35.0172C51.2513 34.9458 53.7737 35.0626 56.2571 35.4453C61.2237 36.1848 66.0469 37.8001 70.4465 40.2133C74.8525 42.6135 78.7893 45.8441 82.0874 49.613C85.3789 53.3885 88.0121 57.7413 89.7654 62.425C91.1212 66.0448 91.9685 69.8462 92.3074 73.6995H87.8362C86.6303 73.6995 85.8482 74.971 86.4022 76.0413L94.6799 92.0644C95.2796 93.2255 96.9481 93.2255 97.5478 92.0644L105.825 76.0413C106.366 74.958 105.584 73.6865 104.379 73.6865ZM74.1617 26.6683L79.5715 29.7756C80.7773 30.4697 82.3155 30.0546 83.0064 28.8609L83.4301 28.1279C84.1275 26.9278 83.7103 25.3968 82.5111 24.7092L77.1012 21.6019C75.8954 20.9078 74.3572 21.323 73.6663 22.5166L73.2426 23.2496C72.5452 24.4432 72.9558 25.9742 74.1617 26.6683ZM42.8889 9.67221C41.1942 9.67221 39.819 10.8918 39.819 12.3968C39.819 13.9018 41.1942 15.1213 42.8889 15.1213H57.0522C58.7469 15.1213 60.1222 13.9018 60.1222 12.3968C60.1222 10.8918 58.7469 9.67221 57.0522 9.67221H55.4684C53.3175 9.67221 53.7411 12.2151 49.9673 12.2151C46.6041 12.2151 46.5193 9.67221 44.4662 9.67221H42.8889ZM44.1925 24.5406C44.1925 25.1698 44.6292 25.4617 45.1701 25.4617H54.9926C55.5336 25.4617 55.9703 25.1698 55.9703 24.5406C55.9703 23.2626 53.2979 22.7566 53.2979 20.9013C53.2979 18.9682 55.9703 18.5141 55.9703 17.2621C55.9703 16.6328 55.5336 16.3409 54.9926 16.3409H45.1701C44.6292 16.3409 44.1925 16.6328 44.1925 17.2621C44.1925 18.5141 46.8648 18.9617 46.8648 20.9013C46.8648 22.7566 44.1925 23.2561 44.1925 24.5406ZM41.7352 21.6798C42.5304 21.9652 43.4168 21.5565 43.7036 20.7651C43.9904 19.9737 43.5798 19.0914 42.7846 18.806C38.5024 17.2556 35.8365 14.4726 35.8365 11.534C35.8365 6.94116 42.3088 3.06189 49.9738 3.06189C57.6388 3.06189 64.1111 6.94116 64.1111 11.534C64.1111 14.4661 61.4518 17.2556 57.163 18.806C56.3679 19.0914 55.9572 19.9737 56.244 20.7651C56.4721 21.3878 57.0588 21.7706 57.691 21.7706C57.867 21.7706 58.0429 21.7381 58.2189 21.6798C63.7526 19.6753 67.1875 15.7895 67.1875 11.534C67.1875 5.06639 59.6268 0 49.9803 0C40.3339 0 32.7666 5.06639 32.7666 11.534C32.7666 15.7895 36.2016 19.6753 41.7352 21.6798ZM85.1312 57.3067C84.7467 56.6515 83.9059 56.4245 83.2411 56.8007L80.1907 58.5522C79.5324 58.9349 79.3043 59.7718 79.6823 60.4335C79.9365 60.8746 80.4058 61.1211 80.8816 61.1211C81.1162 61.1211 81.3509 61.0627 81.5725 60.9394L84.6228 59.1879C85.2811 58.8117 85.5093 57.9684 85.1312 57.3067ZM84.6228 95.8269L81.592 94.0883C80.9337 93.7056 80.0864 93.9326 79.7019 94.5943C79.3173 95.2495 79.5454 96.0928 80.2102 96.4756L83.2411 98.2141C83.4561 98.3374 83.6973 98.3957 83.9319 98.3957C84.4078 98.3957 84.877 98.1492 85.1312 97.7081C85.5093 97.0529 85.2811 96.2096 84.6228 95.8269ZM67.8263 48.108C68.3021 48.108 68.7714 47.8615 69.0256 47.4204L70.7789 44.3974C71.1634 43.7423 70.9353 42.8989 70.2705 42.5162C69.6122 42.1335 68.7649 42.3605 68.3803 43.0222L66.627 46.0452C66.2424 46.7004 66.4706 47.5437 67.1354 47.9264C67.3505 48.0497 67.5916 48.108 67.8263 48.108ZM51.3556 41.9453V38.4812C51.3556 37.7223 50.7364 37.106 49.9738 37.106C49.2112 37.106 48.592 37.7223 48.592 38.4812V41.9453C48.592 42.7043 49.2112 43.3206 49.9738 43.3206C50.7364 43.3206 51.3556 42.7043 51.3556 41.9453ZM19.6592 58.5003L16.7131 56.8072C16.0548 56.4245 15.2075 56.6515 14.8229 57.3132C14.4384 57.9684 14.6665 58.8117 15.3313 59.1944L18.2774 60.8876C18.4925 61.0108 18.7336 61.0757 18.9683 61.0757C19.4441 61.0757 19.9134 60.8292 20.1676 60.3881C20.5456 59.7199 20.3175 58.8766 19.6592 58.5003ZM15.5399 77.5334C15.5399 76.7744 14.9207 76.1581 14.1581 76.1581H10.7297C9.9671 76.1581 9.34791 76.7744 9.34791 77.5334C9.34791 78.2923 9.9671 78.9086 10.7297 78.9086H14.1581C14.9207 78.9086 15.5399 78.2923 15.5399 77.5334ZM32.0888 48.0497C32.3234 48.0497 32.5581 47.9913 32.7797 47.868C33.438 47.4853 33.6661 46.6485 33.2881 45.9868L31.5673 43.0222C31.1828 42.367 30.342 42.1399 29.6772 42.5162C29.0189 42.8989 28.7907 43.7358 29.1688 44.3974L30.8895 47.362C31.1437 47.8032 31.613 48.0497 32.0888 48.0497ZM16.0157 98.3957C16.2503 98.3957 16.485 98.3374 16.7066 98.2141L19.6331 96.534C20.2914 96.1512 20.5195 95.3144 20.1415 94.6527C19.757 93.9975 18.9161 93.7705 18.2513 94.1467L15.3248 95.8269C14.6665 96.2096 14.4384 97.0464 14.8164 97.7081C15.0771 98.1492 15.5399 98.3957 16.0157 98.3957ZM30.8699 107.685L29.1688 110.617C28.7842 111.273 29.0123 112.116 29.6772 112.499C29.8922 112.622 30.1334 112.68 30.3681 112.68C30.8439 112.68 31.3131 112.434 31.5673 111.993L33.2685 109.06C33.6531 108.405 33.4249 107.562 32.7601 107.179C32.0953 106.803 31.2545 107.03 30.8699 107.685ZM67.1549 107.127C66.4966 107.51 66.2685 108.347 66.6465 109.009L68.3803 111.999C68.6345 112.44 69.1038 112.687 69.5796 112.687C69.8142 112.687 70.0489 112.628 70.2705 112.505C70.9288 112.122 71.1569 111.286 70.7789 110.624L69.0451 107.633C68.6606 106.972 67.8132 106.745 67.1549 107.127ZM48.592 113.115V116.534C48.592 117.293 49.2112 117.909 49.9738 117.909C50.7364 117.909 51.3556 117.293 51.3556 116.534V113.115C51.3556 112.356 50.7364 111.74 49.9738 111.74C49.2112 111.74 48.592 112.356 48.592 113.115ZM78.7046 74.9256C78.7046 65.2793 72.6951 57.3716 63.0487 57.3716C53.4022 57.3716 47.3015 65.3766 47.3015 74.9256C47.3015 84.5718 53.2653 92.4795 62.9574 92.4795C72.6495 92.4795 78.7046 84.4745 78.7046 74.9256ZM63.0552 84.1826C59.2748 84.1826 56.7524 80.3228 56.7524 74.9191C56.7524 69.418 59.2227 65.6555 62.9574 65.6555C66.6922 65.6555 69.2602 69.5608 69.2602 74.9191C69.2537 80.3747 66.8356 84.1826 63.0552 84.1826ZM47.2037 84.0853H36.8859L42.6999 80.0309C44.0165 79.1032 45.1767 78.2275 46.1804 77.3452C46.0957 76.5538 46.0501 75.7429 46.0501 74.9191C46.0501 70.6246 47.2885 66.6416 49.5306 63.5537C47.6926 59.7329 43.5016 57.3586 38.0526 57.3586C31.4631 57.3586 27.8782 59.9145 24.2412 64.5917L30.5897 69.8462C33.2555 66.8102 35.0479 65.5063 37.3226 65.5063C39.5974 65.5063 41.103 66.8102 41.103 68.9315C41.103 70.9555 39.9428 72.5967 36.7425 75.0099L24.0457 84.6561L28.2367 91.6946H52.7374L47.2037 84.0853Z" fill="#666666"/>
</g>
</g>
<defs>
<filter id="filter0_d_917_28" x="-5" y="-3" width="116" height="136" filterUnits="userSpaceOnUse" color-interpolation-filters="sRGB">
<feFlood flood-opacity="0" result="BackgroundImageFix"/>
<feColorMatrix in="SourceAlpha" type="matrix" values="0 0 0 0 0 0 0 0 0 0 0 0 0 0 0 0 0 0 127 0" result="hardAlpha"/>
<feOffset dy="2"/>
<feGaussianBlur stdDeviation="2.5"/>
<feComposite in2="hardAlpha" operator="out"/>
<feColorMatrix type="matrix" values="0 0 0 0 0.429167 0 0 0 0 0.429167 0 0 0 0 0.429167 0 0 0 0.27 0"/>
<feBlend mode="normal" in2="BackgroundImageFix" result="effect1_dropShadow_917_28"/>
<feBlend mode="normal" in="SourceGraphic" in2="effect1_dropShadow_917_28" result="shape"/>
</filter>
<clipPath id="clip0_917_28">
<rect width="106" height="126" fill="white"/>
</clipPath>
</defs>
</svg>
