<svg width="100" height="100" viewBox="0 0 100 100" fill="none" xmlns="http://www.w3.org/2000/svg">
<g clip-path="url(#clip0_917_44)">
<g filter="url(#filter0_d_917_44)">
<path d="M93.304 25.0294C86.548 13.3036 75.5804 4.96093 62.4753 1.57773C49.9977 -1.64344 36.6719 0.10954 25.4543 6.45366C13.6631 13.1219 5.22547 24.0277 1.72488 37.1038C-1.73159 50.0228 0.0432224 63.5164 6.72082 75.0949C12.712 85.4851 22.2283 93.3809 33.5243 97.3288C37.7407 98.8019 42.1042 99.6857 46.4971 100L44.3154 95.9883C38.1624 95.2173 32.2251 93.1943 26.8713 90.0615C23.5423 88.1121 21.1742 84.7977 20.6055 80.9823C20.4388 79.8677 20.4486 78.8758 20.8016 78.2964C22.0077 76.3225 30.4013 77.3389 29.9453 73.2142C29.406 68.3334 21.5174 67.6852 19.7083 65.7211C17.8943 63.7521 20.3457 61.1644 18.8552 56.4259C18.5022 55.3113 17.4824 54.0444 15.6635 53.5632C14.1387 53.1605 12.0403 54.0493 10.1037 55.2523C8.1377 56.4701 6.61295 55.8759 5.58337 54.9823C4.84305 54.3341 4.00466 52.8315 3.82816 50.6317C3.71049 49.1586 5.1176 48.0587 6.53451 48.4663C7.38269 48.7118 8.26518 48.8444 8.84861 48.9082C16.2812 49.6938 14.7222 44.0225 14.3986 43.6836C13.6239 42.8783 12.4571 42.2449 12.8003 39.4951C12.9964 37.9238 15.1389 37.1873 15.9969 36.5097C17.7913 35.1004 18.0953 31.84 16.3352 30.3865C14.7516 29.0804 12.5404 27.2832 13.5651 24.0277C14.6192 20.669 18.4336 19.3432 21.1742 18.2089C23.6109 17.2023 23.9786 13.9664 21.5419 13.829L21.4978 13.8044C23.204 12.459 25.0229 11.2216 26.9595 10.102C33.0488 6.58133 39.6136 4.6172 46.198 4.08197C47.4728 3.97886 48.2572 5.45687 47.458 6.45858C47.458 6.45858 46.2667 7.99549 44.6684 8.43742C41.3688 9.35564 35.4855 7.30804 32.7252 9.54224C30.5434 11.305 31.622 12.896 33.1468 13.7455C34.6716 14.5949 37.2554 13.7848 40.5746 13.0826C46.8991 11.7372 48.0268 14.32 52.3461 14.9092C57.1901 15.5721 60.676 10.9957 64.505 11.7372C67.5987 12.3411 69.4078 14.7815 69.2853 17.8407C69.197 20.0503 70.8002 21.9506 73.0065 22.0734C84.7438 22.7363 86.3617 34.9629 85.2732 40.654C84.4986 44.7099 86.0185 47.5333 89.7348 48.4221C92.8137 49.1586 95.422 45.3482 95.6819 44.2238C97.2998 57.1919 93.3825 70.5332 84.6408 80.5355C82.8072 82.6322 76.6002 89.1973 66.4858 93.1894C63.6863 94.2942 60.8427 95.0995 57.9843 95.62L55.7634 99.8527C59.9111 99.4156 64.005 98.4631 67.8831 96.8378C75.5167 93.6411 80.0665 90.0959 80.9147 89.4281C90.2888 82.0577 96.7311 71.5202 99.0501 59.7502C101.399 47.8574 99.3589 35.5325 93.304 25.0294ZM88.0335 64.6801C88.4993 62.1808 86.3617 61.7781 84.5378 62.4115C81.9786 63.3003 82.1453 66.2023 79.8508 66.3398C74.8646 66.6393 75.3206 71.5006 75.3843 73.6414C75.4726 76.4747 70.1138 81.3801 71.7563 83.6781C73.384 85.9565 77.8112 82.6764 79.5174 81.0953C81.3412 79.4012 82.5963 76.3028 84.5329 75.3502C86.7833 74.2405 86.8274 72.1978 85.7096 71.2256C85.0379 70.6412 83.9593 70.6953 83.8956 69.3646C83.8024 67.4937 87.7442 66.2171 88.0335 64.6801ZM80.5127 46.5365L50.9537 63.4526L21.0664 46.5365L50.7919 99.8822L80.5127 46.5365ZM41.663 29.7285H43.3495V44.2188H47.6787V26.6301H41.663V29.7285ZM40.5795 20.9194H36.2846L30.5533 36.711L24.7582 20.9194H20.5271L29.1266 44.2188H31.8378L40.5795 20.9194ZM74.1586 32.9595C69.8834 31.7614 65.3385 33.8237 65.0296 37.7618C64.4756 44.8867 72.6044 44.5724 74.9529 42.5788C75.2323 42.3431 75.6393 42.3922 75.8697 42.677C76.9924 44.0667 78.983 44.0912 79.9978 43.173C80.2969 42.9029 80.2283 42.4315 79.9047 42.2007C79.2428 41.7293 78.9143 40.5705 78.8996 40.0009C78.8114 36.5932 78.9683 34.03 78.9683 31.4619C78.9683 27.8381 75.5167 26.4533 72.2416 26.4533C69.854 26.4533 68.1968 26.8904 66.9564 27.8724C66.5103 28.226 66.4613 28.884 66.8388 29.3112C67.0006 29.4928 67.28 29.92 67.4173 30.0919C67.7213 30.4798 68.2704 30.5535 68.6724 30.2785C69.4127 29.7678 70.5943 29.3553 71.5454 29.3652C74.4136 29.3946 75.0755 30.5289 75.2029 32.1002C75.252 32.66 74.7077 33.1166 74.1586 32.9595ZM75.0313 39.1219C74.9823 39.883 74.3744 40.1875 73.6438 40.379C71.8837 40.8455 68.6724 40.9584 68.4812 38.3412C68.3341 36.3133 70.8542 35.1397 74.2616 35.8271C74.7176 35.9204 75.0117 36.1709 75.0215 36.6422C75.0362 37.4181 75.0656 38.5523 75.0313 39.1219ZM48.1445 22.4613C48.1445 21.0864 47.0315 19.9717 45.6587 19.9717C44.286 19.9717 43.173 21.0864 43.173 22.4613C43.173 23.8361 44.286 24.9508 45.6587 24.9508C47.0315 24.9459 48.1445 23.8361 48.1445 22.4613ZM53.1649 23.6692V26.6301H50.7919V29.7285H53.1649V38.5965C53.1649 41.7981 55.1064 44.4496 58.9306 44.4496C60.3377 44.4496 61.534 44.268 62.5488 43.9586C62.6322 43.9341 62.6812 43.8506 62.6665 43.7671L61.9899 40.0598C59.6611 40.9731 57.3568 40.595 57.3568 38.5965V29.7285H61.7644V26.6301H57.3568V21.7984L53.1649 23.6692Z" fill="#666666"/>
</g>
</g>
<defs>
<filter id="filter0_d_917_44" x="-5" y="-3" width="110" height="110" filterUnits="userSpaceOnUse" color-interpolation-filters="sRGB">
<feFlood flood-opacity="0" result="BackgroundImageFix"/>
<feColorMatrix in="SourceAlpha" type="matrix" values="0 0 0 0 0 0 0 0 0 0 0 0 0 0 0 0 0 0 127 0" result="hardAlpha"/>
<feOffset dy="2"/>
<feGaussianBlur stdDeviation="2.5"/>
<feComposite in2="hardAlpha" operator="out"/>
<feColorMatrix type="matrix" values="0 0 0 0 0.429167 0 0 0 0 0.429167 0 0 0 0 0.429167 0 0 0 0.27 0"/>
<feBlend mode="normal" in2="BackgroundImageFix" result="effect1_dropShadow_917_44"/>
<feBlend mode="normal" in="SourceGraphic" in2="effect1_dropShadow_917_44" result="shape"/>
</filter>
<clipPath id="clip0_917_44">
<rect width="100" height="100" fill="white"/>
</clipPath>
</defs>
</svg>
