<svg width="93" height="74" viewBox="0 0 93 74" fill="none" xmlns="http://www.w3.org/2000/svg">
<g clip-path="url(#clip0_917_36)">
<g filter="url(#filter0_d_917_36)">
<path d="M90.2001 35.9692L79.0005 10.9278C77.2253 6.96071 74.0323 3.85535 70.0067 2.18354C57.6818 -2.93515 45.6738 1.67127 39.2392 8.50942C35.7822 12.1826 34.3888 17.3251 35.5141 22.2651C35.8106 23.5637 36.1275 24.9257 36.4525 26.3196H2.80889C1.95988 26.3196 1.16368 26.6889 0.627461 27.3362C0.0912436 27.9835 -0.115925 28.8213 0.0628143 29.6354L9.22319 71.8238C9.49536 73.0827 10.6531 74 11.9693 74H65.7697C80.6741 74 92.8893 62.2894 92.999 47.8943C93.0356 43.681 92.0647 39.6226 90.2001 35.9692ZM41.3109 10.3718C47.0793 4.24451 57.8484 0.118591 68.9099 4.71707C72.2734 6.11488 74.9423 8.71194 76.425 12.0317L83.343 27.499C78.513 23.5398 72.4765 21.3875 66.0947 21.3875C59.2011 21.3875 52.9533 23.9687 48.497 28.6546C45.56 31.7401 43.5573 35.5284 42.5905 39.7179C41.25 34.2974 39.5682 27.3918 38.2642 21.6734C37.338 17.6031 38.4755 13.3819 41.3109 10.3718ZM65.7738 71.2441L11.9774 71.2481L2.81295 29.0675H37.1065C39.4707 38.9912 42.1152 49.3795 42.1477 49.5066L42.2249 49.4867C43.4395 56.0866 49.1673 65.4265 64.551 65.4265C71.3878 65.4265 75.7263 62.4681 78.1637 59.9901C81.4419 56.6544 83.2862 52.0321 83.1034 47.6322C82.8881 42.5254 77.5909 30.3621 65.7413 30.5964C61.2159 30.6838 57.2512 32.3238 54.5742 35.2147C52.1409 37.8436 50.9141 41.3699 51.2025 44.8882C51.5397 48.9824 53.8308 52.5682 57.4909 54.7285C60.895 56.7378 64.8192 56.9205 68.2477 55.2249C71.1928 53.7715 73.1833 51.1664 73.4433 48.4224C73.7114 45.6149 72.8421 43.268 71.0019 41.8146C69.3851 40.5399 67.1265 40.0872 65.2457 40.667C63.6899 41.1475 62.4143 42.3785 61.9228 43.8796C61.4231 45.4084 61.7644 47.0524 62.8896 48.5098C63.3568 49.1174 64.2383 49.2365 64.8598 48.7798C65.4813 48.3232 65.6032 47.4615 65.136 46.8539C64.5632 46.1073 64.3804 45.3886 64.6039 44.7135C64.8151 44.0702 65.4122 43.4944 66.0947 43.2879C66.9153 43.0337 68.2071 43.141 69.2348 43.9511C70.3357 44.8207 70.8232 46.2781 70.6444 48.1643C70.4738 49.9473 69.0358 51.7502 66.9803 52.7668C64.4333 54.0256 61.5044 53.8787 58.9451 52.3697C54.8626 49.9592 54.1314 46.1788 54.0054 44.6619C53.778 41.894 54.7448 39.1222 56.6581 37.0533C58.1774 35.4093 60.9966 33.4317 65.7941 33.3404C65.8835 33.3404 65.9688 33.3364 66.0541 33.3364C75.6248 33.3364 80.1135 43.5976 80.2882 47.7355C80.4426 51.4047 78.8867 55.2685 76.1325 58.0761C74.077 60.1728 70.3966 62.6706 64.551 62.6706C57.8808 62.6706 52.6974 60.7923 49.1511 57.0873C45.495 53.2711 44.9019 48.8434 44.8085 47.5806C44.317 40.9847 46.3603 34.9249 50.5566 30.513C54.4767 26.395 59.9932 24.1236 66.0947 24.1236C72.5659 24.1236 78.6389 26.5976 83.1968 31.0848C85.0654 32.9274 86.5807 35.0162 87.7222 37.2757V37.2797C89.3592 40.528 90.2204 44.1297 90.192 47.8586C90.0904 60.7605 79.1386 71.2441 65.7738 71.2441Z" fill="#666666"/>
</g>
</g>
<defs>
<filter id="filter0_d_917_36" x="-5" y="-3" width="103" height="84" filterUnits="userSpaceOnUse" color-interpolation-filters="sRGB">
<feFlood flood-opacity="0" result="BackgroundImageFix"/>
<feColorMatrix in="SourceAlpha" type="matrix" values="0 0 0 0 0 0 0 0 0 0 0 0 0 0 0 0 0 0 127 0" result="hardAlpha"/>
<feOffset dy="2"/>
<feGaussianBlur stdDeviation="2.5"/>
<feComposite in2="hardAlpha" operator="out"/>
<feColorMatrix type="matrix" values="0 0 0 0 0.429167 0 0 0 0 0.429167 0 0 0 0 0.429167 0 0 0 0.27 0"/>
<feBlend mode="normal" in2="BackgroundImageFix" result="effect1_dropShadow_917_36"/>
<feBlend mode="normal" in="SourceGraphic" in2="effect1_dropShadow_917_36" result="shape"/>
</filter>
<clipPath id="clip0_917_36">
<rect width="93" height="74" fill="white"/>
</clipPath>
</defs>
</svg>
