<svg width="112" height="104" viewBox="0 0 112 104" fill="none" xmlns="http://www.w3.org/2000/svg">
<g clip-path="url(#clip0_917_32)">
<g filter="url(#filter0_d_917_32)">
<path d="M111.99 26.6999L55.9976 0L0 26.6999L55.9976 53.3999L111.99 26.6999ZM55.9976 3.71846L104.195 26.6999L55.9976 49.6814L7.79991 26.6999L55.9976 3.71846ZM86.5222 45.0686L104.195 53.4971L55.9976 76.4737L7.79991 53.4922L25.4731 45.0638L24.0653 42.0161L0.00479284 53.4874L56.0024 80.1873L112 53.4874L87.9395 42.0161L86.5222 45.0686ZM89.6249 70.3541L104.191 77.3L55.9976 100.282L7.79991 77.3L22.3655 70.3541L20.9578 67.3064L0 77.3L55.9976 104L111.995 77.3L91.0422 67.3064L89.6249 70.3541Z" fill="#666666"/>
</g>
</g>
<defs>
<filter id="filter0_d_917_32" x="-5" y="-3" width="122" height="114" filterUnits="userSpaceOnUse" color-interpolation-filters="sRGB">
<feFlood flood-opacity="0" result="BackgroundImageFix"/>
<feColorMatrix in="SourceAlpha" type="matrix" values="0 0 0 0 0 0 0 0 0 0 0 0 0 0 0 0 0 0 127 0" result="hardAlpha"/>
<feOffset dy="2"/>
<feGaussianBlur stdDeviation="2.5"/>
<feComposite in2="hardAlpha" operator="out"/>
<feColorMatrix type="matrix" values="0 0 0 0 0.429167 0 0 0 0 0.429167 0 0 0 0 0.429167 0 0 0 0.27 0"/>
<feBlend mode="normal" in2="BackgroundImageFix" result="effect1_dropShadow_917_32"/>
<feBlend mode="normal" in="SourceGraphic" in2="effect1_dropShadow_917_32" result="shape"/>
</filter>
<clipPath id="clip0_917_32">
<rect width="112" height="104" fill="white"/>
</clipPath>
</defs>
</svg>
