<svg width="99" height="14" viewBox="0 0 99 14" fill="none" xmlns="http://www.w3.org/2000/svg">
<g clip-path="url(#clip0_917_40)">
<g filter="url(#filter0_d_917_40)">
<path d="M84.9944 0L76.1189 8.88144L67.2434 0L58.368 8.88144L49.4925 0L40.617 8.88144L31.7415 0L22.866 8.88144L13.9906 0L0 14H99L84.9944 0ZM6.26347 11.4013L13.9793 3.68027L21.6952 11.4013H6.26347ZM24.0144 11.4013L31.7303 3.68027L39.4461 11.4013H24.0144ZM41.7692 11.4013L49.485 3.68027L57.2008 11.4013H41.7692ZM59.5238 11.4013L67.2397 3.68027L74.9555 11.4013H59.5238ZM84.9944 3.67651L92.7102 11.3975H77.2748L84.9944 3.67651Z" fill="#666666"/>
</g>
</g>
<defs>
<filter id="filter0_d_917_40" x="-5" y="-3" width="109" height="24" filterUnits="userSpaceOnUse" color-interpolation-filters="sRGB">
<feFlood flood-opacity="0" result="BackgroundImageFix"/>
<feColorMatrix in="SourceAlpha" type="matrix" values="0 0 0 0 0 0 0 0 0 0 0 0 0 0 0 0 0 0 127 0" result="hardAlpha"/>
<feOffset dy="2"/>
<feGaussianBlur stdDeviation="2.5"/>
<feComposite in2="hardAlpha" operator="out"/>
<feColorMatrix type="matrix" values="0 0 0 0 0.429167 0 0 0 0 0.429167 0 0 0 0 0.429167 0 0 0 0.27 0"/>
<feBlend mode="normal" in2="BackgroundImageFix" result="effect1_dropShadow_917_40"/>
<feBlend mode="normal" in="SourceGraphic" in2="effect1_dropShadow_917_40" result="shape"/>
</filter>
<clipPath id="clip0_917_40">
<rect width="99" height="14" fill="white"/>
</clipPath>
</defs>
</svg>
