<svg width="93" height="92" viewBox="0 0 93 92" fill="none" xmlns="http://www.w3.org/2000/svg">
<g clip-path="url(#clip0_917_34)">
<g filter="url(#filter0_d_917_34)">
<path d="M10.2228 0C4.58417 0 0 4.48379 0 9.99894C0 15.5141 4.58417 19.9979 10.2228 19.9979C15.8614 19.9979 20.4455 15.5141 20.4455 9.99894C20.4455 4.48379 15.8614 0 10.2228 0ZM10.2228 16.6423C6.47526 16.6423 3.43069 13.6596 3.43069 9.99894C3.43069 6.33347 6.48021 3.35558 10.2228 3.35558C13.9703 3.35558 17.0148 6.33831 17.0148 9.99894C17.0198 13.6596 13.9703 16.6423 10.2228 16.6423ZM34.4059 0C28.7673 0 24.1832 4.48379 24.1832 9.99894C24.1832 15.5141 28.7673 19.9979 34.4059 19.9979C40.0445 19.9979 44.6287 15.5141 44.6287 9.99894C44.6287 4.48379 40.0445 0 34.4059 0ZM34.4059 16.6423C30.6584 16.6423 27.6138 13.6596 27.6138 9.99894C27.6138 6.33347 30.6634 3.35558 34.4059 3.35558C38.1535 3.35558 41.198 6.33831 41.198 9.99894C41.2029 13.6596 38.1535 16.6423 34.4059 16.6423ZM58.594 0C52.9554 0 48.3713 4.48379 48.3713 9.99894C48.3713 15.5141 52.9554 19.9979 58.594 19.9979C64.2327 19.9979 68.8168 15.5141 68.8168 9.99894C68.8168 4.48379 64.2277 0 58.594 0ZM58.594 16.6423C54.8465 16.6423 51.802 13.6596 51.802 9.99894C51.802 6.33347 54.8515 3.35558 58.594 3.35558C62.3416 3.35558 65.3861 6.33831 65.3861 9.99894C65.3861 13.6596 62.3366 16.6423 58.594 16.6423ZM82.7772 19.9979C88.4158 19.9979 93 15.5141 93 9.99894C93 4.48379 88.4158 0 82.7772 0C77.1386 0 72.5544 4.48379 72.5544 9.99894C72.5544 15.5093 77.1386 19.9979 82.7772 19.9979ZM82.7772 3.35074C86.5247 3.35074 89.5693 6.33348 89.5693 9.99411C89.5693 13.6596 86.5198 16.6375 82.7772 16.6375C79.0346 16.6375 75.9851 13.6547 75.9851 9.99411C75.9851 6.33348 79.0297 3.35074 82.7772 3.35074ZM10.2228 24.0023C4.58417 24.0023 0 28.4861 0 34.0013C0 39.5164 4.58417 44.0002 10.2228 44.0002C15.8614 44.0002 20.4455 39.5164 20.4455 34.0013C20.4455 28.4861 15.8614 24.0023 10.2228 24.0023ZM10.2228 40.6446C6.47526 40.6446 3.43069 37.6619 3.43069 34.0013C3.43069 30.3358 6.48021 27.3579 10.2228 27.3579C13.9703 27.3579 17.0148 30.3406 17.0148 34.0013C17.0198 37.6619 13.9703 40.6446 10.2228 40.6446ZM34.4059 24.0023C28.7673 24.0023 24.1832 28.4861 24.1832 34.0013C24.1832 39.5164 28.7673 44.0002 34.4059 44.0002C40.0445 44.0002 44.6287 39.5164 44.6287 34.0013C44.6287 28.4861 40.0445 24.0023 34.4059 24.0023ZM34.4059 40.6446C30.6584 40.6446 27.6138 37.6619 27.6138 34.0013C27.6138 30.3358 30.6634 27.3579 34.4059 27.3579C38.1535 27.3579 41.198 30.3406 41.198 34.0013C41.2029 37.6619 38.1535 40.6446 34.4059 40.6446ZM58.594 24.0023C52.9554 24.0023 48.3713 28.4861 48.3713 34.0013C48.3713 39.5164 52.9554 44.0002 58.594 44.0002C64.2327 44.0002 68.8168 39.5164 68.8168 34.0013C68.8168 28.4861 64.2277 24.0023 58.594 24.0023ZM58.594 40.6446C54.8465 40.6446 51.802 37.6619 51.802 34.0013C51.802 30.3358 54.8515 27.3579 58.594 27.3579C62.3416 27.3579 65.3861 30.3406 65.3861 34.0013C65.3861 37.6619 62.3366 40.6446 58.594 40.6446ZM82.7772 24.0023C77.1386 24.0023 72.5544 28.4861 72.5544 34.0013C72.5544 39.5164 77.1386 44.0002 82.7772 44.0002C88.4158 44.0002 93 39.5164 93 34.0013C93 28.4861 88.4158 24.0023 82.7772 24.0023ZM82.7772 40.6446C79.0297 40.6446 75.9851 37.6619 75.9851 34.0013C75.9851 30.3358 79.0346 27.3579 82.7772 27.3579C86.5198 27.3579 89.5693 30.3406 89.5693 34.0013C89.5693 37.6619 86.5247 40.6446 82.7772 40.6446ZM10.2228 47.9998C4.58417 47.9998 0 52.4836 0 57.9987C0 63.5139 4.58417 67.9977 10.2228 67.9977C15.8614 67.9977 20.4455 63.5139 20.4455 57.9987C20.4455 52.4884 15.8614 47.9998 10.2228 47.9998ZM10.2228 64.6469C6.47526 64.6469 3.43069 61.6642 3.43069 58.0036C3.43069 54.3381 6.48021 51.3602 10.2228 51.3602C13.9703 51.3602 17.0148 54.3429 17.0148 58.0036C17.0198 61.6642 13.9703 64.6469 10.2228 64.6469ZM34.4059 47.9998C28.7673 47.9998 24.1832 52.4836 24.1832 57.9987C24.1832 63.5139 28.7673 67.9977 34.4059 67.9977C40.0445 67.9977 44.6287 63.5139 44.6287 57.9987C44.6287 52.4884 40.0445 47.9998 34.4059 47.9998ZM34.4059 64.6469C30.6584 64.6469 27.6138 61.6642 27.6138 58.0036C27.6138 54.3381 30.6634 51.3602 34.4059 51.3602C38.1535 51.3602 41.198 54.3429 41.198 58.0036C41.2029 61.6642 38.1535 64.6469 34.4059 64.6469ZM58.594 47.9998C52.9554 47.9998 48.3713 52.4836 48.3713 57.9987C48.3713 63.5139 52.9554 67.9977 58.594 67.9977C64.2327 67.9977 68.8168 63.5139 68.8168 57.9987C68.8168 52.4884 64.2277 47.9998 58.594 47.9998ZM58.594 64.6469C54.8465 64.6469 51.802 61.6642 51.802 58.0036C51.802 54.3381 54.8515 51.3602 58.594 51.3602C62.3416 51.3602 65.3861 54.3429 65.3861 58.0036C65.3861 61.6642 62.3366 64.6469 58.594 64.6469ZM82.7772 47.9998C77.1386 47.9998 72.5544 52.4836 72.5544 57.9987C72.5544 63.5139 77.1386 67.9977 82.7772 67.9977C88.4158 67.9977 93 63.5139 93 57.9987C93 52.4884 88.4158 47.9998 82.7772 47.9998ZM82.7772 64.6469C79.0297 64.6469 75.9851 61.6642 75.9851 58.0036C75.9851 54.3381 79.0346 51.3602 82.7772 51.3602C86.5198 51.3602 89.5693 54.3429 89.5693 58.0036C89.5693 61.6642 86.5247 64.6469 82.7772 64.6469ZM10.2228 72.0021C4.58417 72.0021 0 76.4859 0 82.0011C0 87.5162 4.58417 92 10.2228 92C15.8614 92 20.4455 87.5162 20.4455 82.0011C20.4455 76.4908 15.8614 72.0021 10.2228 72.0021ZM10.2228 88.6493C6.47526 88.6493 3.43069 85.6665 3.43069 82.0059C3.43069 78.3453 6.48021 75.3577 10.2228 75.3577C13.9703 75.3577 17.0148 78.3404 17.0148 82.0059C17.0148 85.6714 13.9703 88.6493 10.2228 88.6493ZM34.4059 72.0021C28.7673 72.0021 24.1832 76.4859 24.1832 82.0011C24.1832 87.5162 28.7673 92 34.4059 92C40.0445 92 44.6287 87.5162 44.6287 82.0011C44.6287 76.4908 40.0445 72.0021 34.4059 72.0021ZM34.4059 88.6493C30.6584 88.6493 27.6138 85.6665 27.6138 82.0059C27.6138 78.3453 30.6634 75.3577 34.4059 75.3577C38.1535 75.3577 41.198 78.3404 41.198 82.0059C41.198 85.6714 38.1535 88.6493 34.4059 88.6493ZM58.594 72.0021C52.9554 72.0021 48.3713 76.4859 48.3713 82.0011C48.3713 87.5162 52.9554 92 58.594 92C64.2327 92 68.8168 87.5162 68.8168 82.0011C68.8168 76.4908 64.2277 72.0021 58.594 72.0021ZM58.594 88.6493C54.8465 88.6493 51.802 85.6665 51.802 82.0059C51.802 78.3453 54.8515 75.3577 58.594 75.3577C62.3416 75.3577 65.3861 78.3404 65.3861 82.0059C65.3861 85.6714 62.3366 88.6493 58.594 88.6493ZM82.7772 72.0021C77.1386 72.0021 72.5544 76.4859 72.5544 82.0011C72.5544 87.5162 77.1386 92 82.7772 92C88.4158 92 93 87.5162 93 82.0011C93 76.4908 88.4158 72.0021 82.7772 72.0021ZM82.7772 88.6493C79.0297 88.6493 75.9851 85.6665 75.9851 82.0059C75.9851 78.3453 79.0346 75.3577 82.7772 75.3577C86.5198 75.3577 89.5693 78.3404 89.5693 82.0059C89.5693 85.6714 86.5247 88.6493 82.7772 88.6493Z" fill="#666666"/>
</g>
</g>
<defs>
<filter id="filter0_d_917_34" x="-5" y="-3" width="103" height="102" filterUnits="userSpaceOnUse" color-interpolation-filters="sRGB">
<feFlood flood-opacity="0" result="BackgroundImageFix"/>
<feColorMatrix in="SourceAlpha" type="matrix" values="0 0 0 0 0 0 0 0 0 0 0 0 0 0 0 0 0 0 127 0" result="hardAlpha"/>
<feOffset dy="2"/>
<feGaussianBlur stdDeviation="2.5"/>
<feComposite in2="hardAlpha" operator="out"/>
<feColorMatrix type="matrix" values="0 0 0 0 0.429167 0 0 0 0 0.429167 0 0 0 0 0.429167 0 0 0 0.27 0"/>
<feBlend mode="normal" in2="BackgroundImageFix" result="effect1_dropShadow_917_34"/>
<feBlend mode="normal" in="SourceGraphic" in2="effect1_dropShadow_917_34" result="shape"/>
</filter>
<clipPath id="clip0_917_34">
<rect width="93" height="92" fill="white"/>
</clipPath>
</defs>
</svg>
