<svg width="112" height="48" viewBox="0 0 112 48" fill="none" xmlns="http://www.w3.org/2000/svg">
<g clip-path="url(#clip0_917_84)">
<path d="M29.07 1.66919C17.4024 1.66919 0 16.9356 0 28.9301C0 36.0902 5.92005 38.6127 11.7254 38.6127C23.961 38.6127 35.3229 35.3084 41.0887 32.462C41.7963 32.1125 41.9573 31.9241 42.0193 31.4796C42.1079 30.8315 41.8791 30.949 41.6792 31.0437C41.4814 31.1347 30.5103 36.4278 18.3233 36.4278C6.13637 36.4278 4.63157 30.019 4.63157 27.8591C4.63157 15.3365 16.5228 4.5783 25.8121 4.5783C33.0428 4.5783 35.3089 5.98019 36.4422 6.56895C36.9284 6.81767 38.4743 7.23047 37.7848 5.40086C37.5573 4.81362 37.1654 4.11466 36.51 3.54873C34.6343 1.9307 29.07 1.66919 29.07 1.66919Z" fill="#5A5A5A"/>
<path d="M8.87064 20.4037C17.824 20.425 24.8026 19.204 33.6048 18.273C33.9778 18.2533 33.92 18.8027 33.9127 18.8919C33.874 19.5888 33.5238 22.0945 30.2483 22.0945C26.622 22.0945 13.4134 21.559 9.45967 21.3907C9.16759 21.3782 8.90685 21.3995 8.78667 21.4211C8.74925 21.4367 8.63911 21.4367 8.68991 21.25C8.76598 20.9401 8.87064 20.4037 8.87064 20.4037Z" fill="#5A5A5A"/>
<path d="M44.7008 0C44.3062 0 44.0263 0.213405 44.21 1.3885C44.388 2.56145 45.145 15.2954 45.006 25.6179C44.8623 35.7145 44.779 36.4059 44.821 36.8911C44.8627 37.377 45.2405 38.3079 46.0349 38.3758C46.8293 38.448 47.4515 38.4185 47.5632 38.4185C47.7186 38.4185 47.8151 38.1378 47.7935 37.89C47.5835 35.4914 47.5355 30.0981 47.8111 20.5075C48.0831 10.9204 48.2249 4.96065 48.2404 3.98192C48.2511 3.00592 48.3478 1.84362 47.8662 1.39428C46.6951 0.303824 45.0942 0 44.7008 0Z" fill="#5A5A5A"/>
<path d="M53.5179 19.1971C53.1662 19.1533 53.1357 19.3853 53.1357 19.5832C53.1357 19.7089 53.2644 19.8307 53.3314 19.8778C53.395 19.9281 53.4558 19.9823 53.5687 20.3436C53.9493 21.5997 54.0211 23.7876 53.9493 36.9096C53.9478 37.8899 54.4903 38.1033 54.6323 38.1271C54.9402 38.1803 55.8448 38.3758 56.3979 38.4269C56.5263 38.4388 56.6988 38.2592 56.7043 37.7852C56.7246 28.68 57.1792 22.2639 57.143 21.509C57.1013 20.7506 56.8378 20.2069 56.2643 19.9524C55.7523 19.7323 54.7206 19.3436 53.5179 19.1971Z" fill="#5A5A5A"/>
<path d="M54.5701 7.47489C54.1341 7.47489 54.0069 7.46697 53.9987 7.95588C53.9881 8.44723 53.9768 11.7153 54.2041 12.3944C54.4268 13.0736 55.1232 13.2572 55.4308 13.365C55.7466 13.4764 56.2918 13.6341 56.4458 13.6341C56.5946 13.6341 56.7713 13.6956 56.7713 13.3175C56.7713 12.9388 56.7756 8.9745 56.7713 8.81802C56.7671 8.66276 56.7929 8.53765 56.8888 8.46063C56.9883 8.37996 55.4126 7.47489 54.5701 7.47489Z" fill="#5A5A5A"/>
<path d="M69.9339 19.642C67.9182 19.642 65.3984 19.9656 64.469 20.3613C63.437 20.7982 61.644 22.5258 61.644 23.3082C61.644 23.8982 61.9626 23.7426 62.1527 23.6896C62.641 23.549 71.7861 20.5565 75.2789 20.5565C76.4213 20.5565 77.2598 20.5662 77.6158 20.7203C78.2988 21.0171 78.3551 21.699 78.3551 22.1967C78.3551 22.6193 77.635 25.2416 66.6373 31.8739C62.9712 34.0816 60.2968 36.0272 60.1462 36.721C59.967 37.5478 60.1462 38.0157 61.3519 38.2431C63.0512 38.5731 63.8498 38.6185 64.8788 38.6276C67.4652 38.6544 73.3609 38.6188 76.9605 37.9092C80.5579 37.2026 80.8433 36.9834 82.0341 36.6802C83.5696 36.2896 84.3786 36.3325 84.4891 35.8473C83.9317 35.8473 78.6652 36.3636 75.4782 36.3636C72.2684 36.3636 69.7215 36.3008 67.5041 35.9532C65.2901 35.6074 64.8027 35.1559 64.8027 34.6816C64.8027 34.2088 65.2956 33.6475 70.6318 30.7931C74.5989 28.6682 77.2352 27.3065 79.3397 25.9993C81.2324 24.8169 82.394 23.9995 82.394 22.7599C82.394 20.425 79.5913 19.9546 76.2999 19.8067C74.1653 19.7047 71.8026 19.642 69.9339 19.642Z" fill="#5A5A5A"/>
<path d="M110.782 36.1961C109.922 35.0286 108.999 29.8131 108.314 22.9401C108.274 22.5133 108.29 22.126 108.42 21.7924C108.455 21.7227 108.436 21.6243 108.299 21.712C107.841 22.0024 106.94 22.4152 105.839 22.5818C105.553 22.625 105.504 22.4119 105.442 22.3072C104.816 21.1893 103.875 19.6471 100.64 19.6471C98.7289 19.6471 96.9627 20.2584 96.1236 20.7439C94.6979 21.5659 91.932 23.4561 91.0046 24.3712C90.0803 25.29 86.1592 28.7921 86.1592 33.8836C86.1592 36.9261 89.3824 38.0677 91.7455 38.0677C94.4664 38.0677 100.252 38.2966 106.139 32.3466C106.411 32.0659 106.856 31.9995 106.871 32.637C106.889 33.2264 107.564 37.4509 108.269 38.7289C108.329 38.833 108.482 38.96 108.681 38.893C109.756 38.5164 110.931 37.9246 111.894 37.45C112.106 37.3483 111.944 37.1739 111.821 37.1158C111.384 36.8978 111.045 36.5495 110.782 36.1961ZM95.0654 36.6174C93.7757 36.6174 89.6611 36.1745 89.6611 30.8963C89.6611 26.0389 94.5397 21.0761 99.2519 21.0761C102.777 21.0761 106.139 22.4019 106.139 28.8676C106.139 35.418 96.6253 36.6174 95.0654 36.6174Z" fill="#5A5A5A"/>
<path d="M5.1705 43.6784V46.5677C5.1705 46.8061 5.12882 47.0152 5.05032 47.1957C4.96483 47.3753 4.86169 47.523 4.72174 47.6441C4.59121 47.7614 4.42935 47.8545 4.24711 47.909C4.06699 47.9705 3.87623 47.9994 3.67786 47.9994C3.46945 47.9994 3.27473 47.9705 3.09462 47.909C2.91663 47.8545 2.75477 47.7614 2.62303 47.6441C2.49616 47.5233 2.38846 47.3753 2.31361 47.1957C2.23542 47.0149 2.19922 46.8061 2.19922 46.5677V43.6784H2.73591V46.5677C2.73591 46.7296 2.75508 46.8746 2.80284 46.996C2.85183 47.1181 2.91663 47.224 2.99787 47.2998C3.08184 47.3805 3.17585 47.4448 3.29299 47.4837C3.4089 47.5221 3.53973 47.5422 3.67786 47.5422C3.82116 47.5422 3.94925 47.5221 4.06699 47.4837C4.18443 47.4448 4.28301 47.3805 4.36424 47.2998C4.45126 47.224 4.51028 47.1181 4.55379 46.996C4.5976 46.8746 4.62651 46.7296 4.62651 46.5677V43.6784H5.1705Z" fill="#5A5A5A"/>
<path d="M7.83606 46.2716V47.9423H7.29785V43.6781H8.81118C9.0415 43.6781 9.24716 43.7092 9.4291 43.7756C9.60283 43.8398 9.75313 43.929 9.87757 44.0462C9.99623 44.161 10.0896 44.3001 10.1517 44.4563C10.218 44.6194 10.2497 44.7933 10.2497 44.9808C10.2497 45.1872 10.218 45.3692 10.1517 45.5321C10.0896 45.6904 9.99623 45.8274 9.87757 45.9367C9.75313 46.0454 9.60283 46.127 9.4291 46.1869C9.24686 46.2426 9.0415 46.2716 8.81118 46.2716H7.83606ZM7.83606 45.8116H8.81148C8.96969 45.8116 9.10113 45.796 9.21826 45.7531C9.33144 45.7114 9.41968 45.6542 9.49726 45.5784C9.56997 45.508 9.62504 45.4201 9.65425 45.322C9.69167 45.2188 9.70506 45.1083 9.70506 44.986C9.70506 44.8761 9.69167 44.7713 9.65425 44.6681C9.62504 44.5649 9.57028 44.4773 9.49726 44.4002C9.41968 44.3217 9.33144 44.2602 9.21826 44.2124C9.10113 44.1658 8.96969 44.1397 8.81148 44.1397H7.83606V45.8116Z" fill="#5A5A5A"/>
<path d="M15.3657 47.9418H14.8199V45.9722H12.7504V47.9418H12.2109V43.6786H12.7504V45.5095H14.8199V43.6786H15.3657V47.9418Z" fill="#5A5A5A"/>
<path d="M20.6511 45.9488C20.6511 46.2691 20.6078 46.5537 20.5309 46.8076C20.456 47.0624 20.3444 47.2743 20.1968 47.4518C20.0535 47.6299 19.8825 47.7656 19.6848 47.8591C19.4794 47.955 19.2506 47.9997 19.0069 47.9997C18.7626 47.9997 18.5374 47.9553 18.3345 47.8591C18.1307 47.7656 17.9554 47.6299 17.8091 47.4518C17.6615 47.2743 17.5514 47.0624 17.4686 46.8076C17.391 46.5537 17.3457 46.2688 17.3457 45.9488V45.6797C17.3457 45.3588 17.3907 45.0763 17.4686 44.8212C17.5514 44.564 17.6615 44.3469 17.8091 44.1709C17.9542 43.9929 18.1276 43.8543 18.3318 43.7624C18.535 43.6653 18.7541 43.619 18.9956 43.619C19.2491 43.619 19.473 43.665 19.6772 43.7624C19.8828 43.8543 20.0538 43.9929 20.1971 44.1709C20.3447 44.3469 20.4563 44.564 20.5312 44.8212C20.6082 45.0763 20.6514 45.3591 20.6514 45.6797V45.9488H20.6511ZM20.1116 45.6742C20.1116 45.4176 20.0882 45.1923 20.0362 44.9978C19.9872 44.8035 19.9202 44.641 19.8189 44.5067C19.721 44.3743 19.605 44.2726 19.466 44.2059C19.3297 44.1381 19.1721 44.1034 18.9956 44.1034C18.8319 44.1034 18.6813 44.1381 18.5414 44.2059C18.4024 44.2729 18.2892 44.3746 18.1897 44.5067C18.0951 44.641 18.0175 44.8038 17.9621 44.9978C17.9113 45.1923 17.8863 45.4176 17.8863 45.6742V45.9488C17.8863 46.2042 17.9113 46.4289 17.9621 46.6225C18.0172 46.8188 18.0972 46.9842 18.1939 47.1187C18.2892 47.2514 18.4106 47.3534 18.5469 47.4225C18.6847 47.4889 18.8377 47.5233 19.0069 47.5233C19.1834 47.5233 19.3373 47.4889 19.473 47.4225C19.6108 47.3531 19.7252 47.2511 19.8205 47.1187C19.9199 46.9845 19.9872 46.8188 20.0407 46.6225C20.0882 46.4289 20.1113 46.2042 20.1113 45.9488V45.6742H20.1116Z" fill="#5A5A5A"/>
<path d="M23.2683 47.4835H25.2134V47.9416H22.7246V43.6781H23.2683V47.4835Z" fill="#5A5A5A"/>
<path d="M29.288 46.8618C29.288 46.7644 29.274 46.6752 29.249 46.5997C29.2159 46.5264 29.1693 46.4548 29.0936 46.3933C29.0187 46.3251 28.9156 46.2688 28.7915 46.2158C28.6658 46.1574 28.5073 46.0992 28.3111 46.0408C28.1127 45.9808 27.9234 45.9114 27.7625 45.8329C27.5967 45.7558 27.4573 45.6688 27.3442 45.5677C27.227 45.4676 27.1388 45.3558 27.0722 45.2243C27.0113 45.0949 26.9809 44.9488 26.9809 44.7841C26.9809 44.6152 27.014 44.4635 27.0846 44.3211C27.1482 44.1804 27.2444 44.0562 27.3627 43.9515C27.4899 43.8483 27.6335 43.7622 27.8027 43.7077C27.97 43.6462 28.1659 43.6188 28.3771 43.6188C28.6071 43.6188 28.8155 43.6547 28.9965 43.7262C29.1718 43.7996 29.3279 43.8973 29.4499 44.0166C29.5712 44.1342 29.6665 44.2724 29.7331 44.4279C29.7909 44.585 29.8271 44.7467 29.8271 44.9114H29.2819C29.2819 44.7926 29.2643 44.6809 29.2268 44.5801C29.1894 44.4776 29.1328 44.3905 29.0589 44.3138C28.9868 44.2431 28.8906 44.1841 28.7769 44.1448C28.664 44.1034 28.5277 44.0833 28.3774 44.0833C28.2341 44.0833 28.1069 44.0995 27.9995 44.1384C27.8927 44.1707 27.803 44.2197 27.7333 44.2821C27.667 44.3406 27.6174 44.4148 27.5799 44.4973C27.5456 44.5835 27.5276 44.6754 27.5276 44.7744C27.5276 44.862 27.5456 44.9449 27.5873 45.0213C27.6189 45.0952 27.6755 45.1634 27.7567 45.2246C27.831 45.2846 27.9304 45.3455 28.0546 45.3991C28.172 45.4508 28.3181 45.5023 28.4875 45.5482C28.7206 45.6179 28.9232 45.6931 29.0933 45.7756C29.26 45.8618 29.4033 45.9525 29.5077 46.0575C29.6199 46.1632 29.6999 46.2831 29.7508 46.4119C29.8073 46.5425 29.8314 46.6917 29.8314 46.8591C29.8314 47.032 29.8025 47.19 29.7334 47.3291C29.6668 47.4689 29.5639 47.5912 29.445 47.6902C29.3193 47.7876 29.169 47.8649 28.9923 47.9206C28.8158 47.9739 28.6187 48.0001 28.4075 48.0001C28.2776 48.0001 28.1541 47.9873 28.0272 47.966C27.9012 47.9392 27.7841 47.9042 27.6682 47.8552C27.5498 47.8052 27.4424 47.7465 27.3442 47.6722C27.2447 47.5989 27.1561 47.5173 27.088 47.4226C27.0116 47.3255 26.955 47.2177 26.9143 47.099C26.8714 46.9809 26.8564 46.8491 26.8564 46.7075H27.3995C27.3995 46.8551 27.4181 46.9769 27.4756 47.0819C27.5386 47.1888 27.6079 47.2749 27.7044 47.3425C27.7941 47.4077 27.9058 47.4612 28.0257 47.4929C28.1446 47.5243 28.273 47.5422 28.4078 47.5422C28.6889 47.5422 28.9129 47.481 29.0592 47.3593C29.2159 47.2369 29.288 47.0737 29.288 46.8618Z" fill="#5A5A5A"/>
<path d="M34.5493 44.1392H33.2237V47.9418H32.6854V44.1392H31.3711V43.6786H34.5493V44.1392Z" fill="#5A5A5A"/>
<path d="M38.7448 45.9722H36.964V47.4837H39.0299V47.9416H36.4219V43.6784H39.0022V44.1393H36.964V45.5095H38.7448V45.9722Z" fill="#5A5A5A"/>
<path d="M42.4817 46.2154H41.5148V47.9418H40.9727V43.6786H42.3311C42.7939 43.6786 43.1483 43.7873 43.3936 44.0059C43.65 44.2257 43.7714 44.5435 43.7714 44.9621C43.7714 45.2269 43.7014 45.4559 43.5673 45.6534C43.4225 45.8525 43.2326 45.9993 42.991 46.0958L43.9509 47.9077V47.9415H43.3744L42.4817 46.2154ZM41.5148 45.7551H42.3482C42.493 45.7551 42.625 45.7369 42.7379 45.6939C42.8459 45.6534 42.9314 45.5993 43.0084 45.5234C43.0805 45.4501 43.1371 45.3688 43.1745 45.2705C43.2067 45.1764 43.2265 45.072 43.2265 44.9618C43.2265 44.8379 43.2067 44.7249 43.1745 44.6257C43.1413 44.5249 43.0896 44.4385 43.0157 44.3651C42.9436 44.2939 42.8459 44.2366 42.7379 44.1992C42.6223 44.1587 42.4829 44.1389 42.3311 44.1389H41.5148V45.7551Z" fill="#5A5A5A"/>
<path d="M46.8803 45.8203L47.9506 43.6786H48.5661L47.148 46.3503V47.9418H46.6098V46.3503L45.1914 43.6786H45.8112L46.8803 45.8203Z" fill="#5A5A5A"/>
<path d="M54.5704 43.6784L55.9125 47.1574L57.2591 43.6784H57.9582V47.9416H57.4185V46.283L57.4708 44.4918L56.1233 47.9416H55.7053L54.3608 44.4973L54.4171 46.283V47.9416H53.874V43.6784H54.5704Z" fill="#5A5A5A"/>
<path d="M62.4519 46.8299H60.7323L60.3486 47.9423H59.79L61.3536 43.6781H61.834L63.3984 47.9423H62.8441L62.4519 46.8299ZM60.896 46.3678H62.2943L61.5924 44.3719L60.896 46.3678Z" fill="#5A5A5A"/>
<path d="M68.3763 47.9418H67.832L65.7625 44.6558V47.9418H65.2148V43.6786H65.7625L67.8369 46.9807V43.6786H68.3763V47.9418Z" fill="#5A5A5A"/>
<path d="M73.4966 43.6784V46.5677C73.4966 46.8061 73.4516 47.0152 73.3737 47.1957C73.2897 47.3753 73.1796 47.523 73.0485 47.6441C72.9094 47.7614 72.753 47.8545 72.5711 47.909C72.3925 47.9705 72.2017 47.9994 71.9976 47.9994C71.7934 47.9994 71.5996 47.9705 71.4186 47.909C71.2391 47.8545 71.083 47.7614 70.9494 47.6441C70.8141 47.5233 70.7094 47.3753 70.6318 47.1957C70.5606 47.0149 70.5244 46.8061 70.5244 46.5677V43.6784H71.0599V46.5677C71.0599 46.7296 71.083 46.8746 71.1217 46.996C71.1697 47.1181 71.2364 47.224 71.3231 47.2998C71.3985 47.3805 71.5026 47.4448 71.6155 47.4837C71.7329 47.5221 71.8585 47.5422 71.9976 47.5422C72.1451 47.5422 72.2735 47.5221 72.3925 47.4837C72.5054 47.4448 72.607 47.3805 72.6925 47.2998C72.7746 47.224 72.8358 47.1181 72.8829 46.996C72.9271 46.8746 72.9453 46.7296 72.9453 46.5677V43.6784H73.4966Z" fill="#5A5A5A"/>
<path d="M77.8828 46.0577H76.1592V47.9418H75.6152V43.6786H78.1588V44.1392H76.1592V45.5999H77.8828V46.0577Z" fill="#5A5A5A"/>
<path d="M82.204 46.8299H80.4844L80.0968 47.9423H79.5352L81.1075 43.6781H81.5791L83.1517 47.9423H82.5947L82.204 46.8299ZM80.6496 46.3678H82.0416L81.3418 44.3719L80.6496 46.3678Z" fill="#5A5A5A"/>
<path d="M87.9113 46.5878C87.8921 46.7899 87.8407 46.9766 87.7719 47.1522C87.6971 47.3236 87.5955 47.4709 87.4713 47.5982C87.3426 47.7206 87.1859 47.8229 87.0022 47.8938C86.8145 47.965 86.6012 48 86.3566 48C86.1138 48 85.8923 47.9556 85.6942 47.8594C85.4986 47.7659 85.3319 47.6332 85.1855 47.4606C85.0474 47.2889 84.9385 47.0797 84.8664 46.838C84.7879 46.5942 84.752 46.3242 84.752 46.0283V45.6002C84.752 45.3031 84.7879 45.0285 84.8664 44.7874C84.9473 44.5436 85.0556 44.3359 85.1949 44.1606C85.3382 43.9901 85.5135 43.8543 85.7152 43.7624C85.9245 43.6653 86.1539 43.619 86.4046 43.619C86.6349 43.619 86.837 43.6549 87.0171 43.725C87.1981 43.7956 87.3454 43.8967 87.4713 44.0175C87.5955 44.1448 87.6971 44.2936 87.7719 44.4732C87.8446 44.644 87.8921 44.8379 87.9113 45.0459H87.3651C87.3454 44.9001 87.3165 44.7661 87.2726 44.6465C87.2267 44.5274 87.1701 44.4273 87.0916 44.3411C87.0168 44.2598 86.9206 44.195 86.8111 44.1469C86.6967 44.1028 86.5619 44.0833 86.4043 44.0833C86.2206 44.0833 86.0642 44.1161 85.9242 44.1947C85.7852 44.2626 85.6677 44.3652 85.5765 44.4985C85.4806 44.6315 85.4113 44.7898 85.3671 44.9746C85.3206 45.1619 85.2984 45.3683 85.2984 45.5935V46.0276C85.2984 46.238 85.3163 46.4325 85.3604 46.6149C85.4 46.7988 85.4666 46.9586 85.5464 47.0953C85.6388 47.2368 85.7471 47.3416 85.8801 47.4219C86.0137 47.5017 86.174 47.5422 86.3559 47.5422C86.5327 47.5422 86.6705 47.5172 86.7919 47.4761C86.9133 47.4329 87.0119 47.3696 87.0816 47.2883C87.1656 47.2085 87.2249 47.109 87.2653 46.9927C87.3119 46.8743 87.3423 46.7379 87.3648 46.5872H87.9113V46.5878Z" fill="#5A5A5A"/>
<path d="M92.7606 44.1392H91.4393V47.9418H90.9011V44.1392H89.584V43.6786H92.7606V44.1392Z" fill="#5A5A5A"/>
<path d="M97.5266 43.6784V46.5677C97.5266 46.8061 97.4862 47.0152 97.4025 47.1957C97.324 47.3753 97.2166 47.523 97.0785 47.6441C96.9449 47.7614 96.7831 47.8545 96.6066 47.909C96.4234 47.9705 96.2327 47.9994 96.0346 47.9994C95.8289 47.9994 95.6327 47.9705 95.4495 47.909C95.2703 47.8545 95.114 47.7614 94.9843 47.6441C94.8496 47.5233 94.7449 47.3753 94.6685 47.1957C94.5931 47.0149 94.5557 46.8061 94.5557 46.5677V43.6784H95.0869V46.5677C95.0869 46.7296 95.1143 46.8746 95.1593 46.996C95.2067 47.1181 95.2703 47.224 95.3501 47.2998C95.4355 47.3805 95.5338 47.4448 95.6507 47.4837C95.7684 47.5221 95.8959 47.5422 96.0346 47.5422C96.1794 47.5422 96.3072 47.5221 96.4234 47.4837C96.5406 47.4448 96.6395 47.3805 96.7195 47.2998C96.8065 47.224 96.8698 47.1181 96.9114 46.996C96.958 46.8746 96.982 46.7296 96.982 46.5677V43.6784H97.5266Z" fill="#5A5A5A"/>
<path d="M101.155 46.2154H100.194V47.9418H99.6494V43.6786H101.008C101.466 43.6786 101.824 43.7873 102.079 44.0059C102.327 44.2257 102.449 44.5435 102.449 44.9621C102.449 45.2269 102.38 45.4559 102.239 45.6534C102.101 45.8525 101.907 45.9993 101.666 46.0958L102.63 47.9077V47.9415H102.051L101.155 46.2154ZM100.194 45.7551H101.024C101.17 45.7551 101.3 45.7369 101.409 45.6939C101.522 45.6534 101.613 45.5993 101.68 45.5234C101.757 45.4501 101.816 45.3688 101.852 45.2705C101.885 45.1764 101.905 45.072 101.905 44.9618C101.905 44.8379 101.885 44.7249 101.852 44.6257C101.82 44.5249 101.761 44.4385 101.69 44.3651C101.619 44.2939 101.522 44.2366 101.409 44.1992C101.296 44.1587 101.163 44.1389 101.008 44.1389H100.194V45.7551Z" fill="#5A5A5A"/>
<path d="M106.79 45.9722H105.01V47.4837H107.078V47.9416H104.466V43.6784H107.048V44.1393H105.01V45.5095H106.79V45.9722Z" fill="#5A5A5A"/>
<path d="M110.528 46.2154H109.56V47.9418H109.021V43.6786H110.377C110.839 43.6786 111.198 43.7873 111.447 44.0059C111.695 44.2257 111.818 44.5435 111.818 44.9621C111.818 45.2269 111.752 45.4559 111.615 45.6534C111.476 45.8525 111.282 45.9993 111.034 46.0958L112 47.9077V47.9415H111.421L110.528 46.2154ZM109.56 45.7551H110.396C110.545 45.7551 110.674 45.7369 110.782 45.6939C110.89 45.6534 110.982 45.5993 111.058 45.5234C111.133 45.4501 111.183 45.3688 111.222 45.2705C111.259 45.1764 111.275 45.072 111.275 44.9618C111.275 44.8379 111.259 44.7249 111.222 44.6257C111.191 44.5249 111.134 44.4385 111.058 44.3651C110.987 44.2939 110.898 44.2366 110.782 44.1992C110.674 44.1587 110.536 44.1389 110.378 44.1389H109.56V45.7551Z" fill="#5A5A5A"/>
</g>
<defs>
<clipPath id="clip0_917_84">
<rect width="112" height="48" fill="white"/>
</clipPath>
</defs>
</svg>
