<svg width="25" height="22" viewBox="0 0 25 22" fill="none" xmlns="http://www.w3.org/2000/svg">
<path d="M17.996 16.427H18.1254C21.3646 16.427 24 13.8025 24 10.5773C24 7.62107 21.7891 5.15372 18.895 4.78636C17.6376 2.47328 15.1728 1 12.5 1C9.10271 1 6.15583 3.37672 5.41121 6.62025C2.93487 6.88251 1 8.97576 1 11.5096C1 14.2209 3.21567 16.427 5.93733 16.427H6.98958M12.5 16.8953V8.33333M12.5 16.8953C12.684 16.8953 12.868 16.8249 13.0099 16.6832L15.1661 14.5138M12.5 16.8953C12.316 16.8953 12.132 16.8249 11.9921 16.6832L9.83586 14.5138M17.2917 17.8664V19.3127C17.2917 20.2431 16.5394 21 15.6146 21H9.38545C8.46065 21 7.70836 20.2431 7.70836 19.3127V17.8664" stroke="white" stroke-width="0.7"/>
</svg>
