<svg width="112" height="74" viewBox="0 0 112 74" fill="none" xmlns="http://www.w3.org/2000/svg">
<g clip-path="url(#clip0_917_22)">
<g filter="url(#filter0_d_917_22)">
<path d="M111.976 33.4825C111.86 32.8837 111.347 32.4364 110.721 32.3859C92.5671 30.9665 80.0366 22.4694 72.7252 15.5862C64.7564 8.09251 61.0566 0.828223 61.0206 0.758224C60.74 0.198236 60.0986 -0.1012 59.4693 0.0310193L18.511 8.87029C18.0981 8.95973 17.7494 9.22806 17.565 9.5975C17.3806 9.96693 17.3766 10.3986 17.561 10.768C27.6944 31.3087 41.6437 41.7773 51.5606 46.9417C62.3594 52.5688 70.6769 53.296 71.0257 53.3232C71.0657 53.3271 71.1018 53.3271 71.1419 53.3271C71.3143 53.3271 71.4826 53.296 71.643 53.2377C71.8033 53.1793 74.2645 52.1566 111.214 34.9408C111.78 34.6764 112.092 34.0775 111.976 33.4825ZM70.9214 50.6011C69.282 50.4027 61.8744 49.2828 52.7471 44.4995C43.4836 39.6463 30.5403 29.9398 20.8359 11.1258L59.0364 2.88152C60.3231 5.15647 64.055 11.1569 70.713 17.4412C77.7037 24.0366 89.2481 32.0476 105.695 34.5169C78.1206 47.3617 72.156 50.0566 70.9214 50.6011ZM109.607 42.2129C108.661 42.2051 107.871 42.1973 107.005 42.1973C106.256 42.1973 105.518 42.3607 104.841 42.6718C82.097 53.2454 76.9381 55.0459 73.114 56.582C71.3143 57.3053 69.9153 57.3326 68.2558 57.1187C61.3452 56.2281 43.1429 51.9777 28.007 32.662C27.6022 32.1448 26.8846 31.9581 26.2794 32.2381L5.18292 41.7073C4.746 41.9096 4.45338 42.3218 4.40528 42.7884C4.35718 43.2551 4.56561 43.714 4.95042 43.9979C5.17089 44.1612 9.41583 47.8633 18.2304 51.6044C23.5416 53.8599 33.0135 56.6404 42.9184 58.9309C53.3484 61.3458 62.2351 61.9291 66.9892 62.1625C68.2959 62.2286 69.5906 61.9797 70.7771 61.4392C74.3847 59.7981 80.2932 57.0915 109.859 43.3212C110.441 43.0607 110.248 42.2207 109.607 42.2129ZM109.643 50.8577H102.288C101.803 50.8577 101.326 50.9472 100.881 51.126C98.0867 52.2421 86.9672 56.7726 72.3204 63.893C70.7731 64.6474 69.0495 64.9935 67.3178 64.9235C42.6779 63.8813 29.5944 59.4986 26.1711 58.1803C25.5619 57.947 24.8844 57.947 24.2752 58.1842L0.408845 67.4357C-0.244532 67.6885 -0.0561242 68.6335 0.645354 68.6335H70.1277C70.8693 68.6335 71.6029 68.4818 72.2803 68.1862L109.843 51.756C110.312 51.546 110.164 50.8577 109.643 50.8577ZM68.2318 69.9168H1.41898C0.637334 69.9168 0 70.5312 0 71.2934V72.6233C0 73.3817 0.633326 74 1.41898 74H68.2318C68.9453 74 69.5265 73.4361 69.5265 72.7439V71.1767C69.5265 70.4767 68.9493 69.9168 68.2318 69.9168ZM108.861 53.2727L71.8915 69.5201C71.3423 69.7612 70.9856 70.294 70.9856 70.8812V72.7284C70.9856 73.3233 71.6189 73.72 72.1801 73.475L109.174 57.2198C109.611 57.0292 109.888 56.6093 109.888 56.1426V53.9143C109.888 53.401 109.342 53.0627 108.861 53.2727Z" fill="#666666"/>
</g>
</g>
<defs>
<filter id="filter0_d_917_22" x="-5" y="-3" width="122" height="84" filterUnits="userSpaceOnUse" color-interpolation-filters="sRGB">
<feFlood flood-opacity="0" result="BackgroundImageFix"/>
<feColorMatrix in="SourceAlpha" type="matrix" values="0 0 0 0 0 0 0 0 0 0 0 0 0 0 0 0 0 0 127 0" result="hardAlpha"/>
<feOffset dy="2"/>
<feGaussianBlur stdDeviation="2.5"/>
<feComposite in2="hardAlpha" operator="out"/>
<feColorMatrix type="matrix" values="0 0 0 0 0.429167 0 0 0 0 0.429167 0 0 0 0 0.429167 0 0 0 0.27 0"/>
<feBlend mode="normal" in2="BackgroundImageFix" result="effect1_dropShadow_917_22"/>
<feBlend mode="normal" in="SourceGraphic" in2="effect1_dropShadow_917_22" result="shape"/>
</filter>
<clipPath id="clip0_917_22">
<rect width="112" height="74" fill="white"/>
</clipPath>
</defs>
</svg>
